/* XPM */
static char *_8a9a590f6b147efe6d81b1eb7047668Yl8vLh9TaCweeEXA[] = {
/* columns rows colors chars-per-pixel */
"64 64 216 2 ",
"   c #0D0C0C",
".  c #090707",
"X  c #100F0F",
"o  c #15110F",
"O  c #0F0F10",
"+  c #141414",
"@  c #191615",
"#  c #1A1917",
"$  c #171819",
"%  c #1B1C1C",
"&  c #161718",
"*  c #100F11",
"=  c #221E1B",
"-  c #291C15",
";  c #1E201F",
":  c #24211E",
">  c #2A231D",
",  c #32271E",
"<  c #1C1F20",
"1  c #1E2223",
"2  c #232424",
"3  c #2A2623",
"4  c #2B2925",
"5  c #262A2B",
"6  c #2B2C2C",
"7  c #252828",
"8  c #342B24",
"9  c #322F2A",
"0  c #392C24",
"q  c #2E302F",
"w  c #3C3226",
"e  c #33312E",
"r  c #3C332A",
"t  c #383627",
"y  c #292E31",
"u  c #2D3233",
"i  c #2F363A",
"p  c #333534",
"a  c #3A3632",
"s  c #3C3A35",
"d  c #323739",
"f  c #353A3B",
"g  c #3B3D3B",
"h  c #353837",
"j  c #550C13",
"k  c #54151A",
"l  c #5B151A",
"z  c #57181A",
"x  c #4C1318",
"c  c #51251E",
"v  c #511E21",
"b  c #482A27",
"n  c #572A26",
"m  c #43352A",
"M  c #453A2E",
"N  c #4C3A2D",
"B  c #47342A",
"V  c #5C332D",
"C  c #55352A",
"Z  c #443C34",
"A  c #4A3C33",
"S  c #413F3A",
"D  c #473935",
"F  c #5B3931",
"G  c #613628",
"H  c #60342E",
"J  c #3C413E",
"K  c #4D4235",
"L  c #44423C",
"P  c #4B453C",
"I  c #4D493D",
"U  c #464136",
"Y  c #524334",
"T  c #524639",
"R  c #534A3D",
"E  c #5A4C3E",
"W  c #594738",
"Q  c #554733",
"!  c #614D3F",
"~  c #393E42",
"^  c #403F41",
"/  c #3C4243",
"(  c #434443",
")  c #4A4642",
"_  c #4C4A43",
"`  c #424649",
"'  c #444A4C",
"]  c #4B4C4C",
"[  c #464848",
"{  c #534C43",
"}  c #594E41",
"|  c #534E49",
" . c #4C514E",
".. c #555145",
"X. c #5B5345",
"o. c #55524A",
"O. c #5B554A",
"+. c #5E594D",
"@. c #5D5A47",
"#. c #4D5354",
"$. c #475050",
"%. c #525454",
"&. c #5D5A53",
"*. c #555A5A",
"=. c #5A5958",
"-. c #4A4D51",
";. c #625444",
":. c #625549",
">. c #635B4D",
",. c #695D4D",
"<. c #665A46",
"1. c #635D52",
"2. c #6A5F51",
"3. c #64595A",
"4. c #624941",
"5. c #6B614E",
"6. c #666155",
"7. c #6B6355",
"8. c #6E6857",
"9. c #65625A",
"0. c #6B655A",
"q. c #6E695C",
"w. c #736B5C",
"e. c #746958",
"r. c #77705E",
"t. c #71644E",
"y. c #5A5D62",
"u. c #655D62",
"i. c #5C6262",
"p. c #6E6B62",
"a. c #676767",
"s. c #736D62",
"d. c #756F67",
"f. c #767164",
"g. c #7A7364",
"h. c #75726B",
"j. c #7A756A",
"k. c #7D796E",
"l. c #6A6E73",
"z. c #6C7178",
"x. c #797878",
"c. c #84796A",
"v. c #817E73",
"b. c #817D7B",
"n. c #7C817D",
"m. c #848175",
"M. c #8C897E",
"N. c #878478",
"B. c #918571",
"V. c #797D84",
"C. c #6F7883",
"Z. c #837D83",
"A. c #7A8589",
"S. c #868888",
"D. c #948D88",
"F. c #969489",
"G. c #858B91",
"H. c #8C969D",
"J. c #899297",
"K. c #91979B",
"L. c #939A9E",
"P. c #979A98",
"I. c #8A98A5",
"U. c #949DA3",
"Y. c #999FA2",
"T. c #919DA8",
"R. c #9CA2A5",
"E. c #94A2AC",
"W. c #9BA4AA",
"Q. c #9FA8AE",
"!. c #8FA3B2",
"~. c #94A6B4",
"^. c #9CAAB5",
"/. c #9CAEBB",
"(. c #97A8B5",
"). c #9DB0BE",
"_. c #A1A6A9",
"`. c #A4AAAB",
"'. c #A9ADAE",
"]. c #A2A6A5",
"[. c #A3ADB5",
"{. c #ABAEB1",
"}. c #A2AFB9",
"|. c #ACB1B3",
" X c #A5B2BB",
".X c #ACB5BC",
"XX c #AEB8BF",
"oX c #B2B5B6",
"OX c #B1B7BA",
"+X c #B4B9BC",
"@X c #B9BCBD",
"#X c #9EB1C0",
"$X c #A3B6C3",
"%X c #ABB7C1",
"&X c #A6B9C6",
"*X c #ACBAC4",
"=X c #A7BAC8",
"-X c #ABBDCA",
";X c #B4BCC2",
":X c #B9BEC3",
">X c #B0BFCA",
",X c #AFC0CB",
"<X c #BCC1C5",
"1X c #B3C1CB",
"2X c #BBC4CA",
"3X c #BAC4CA",
"4X c #BFC9D1",
"5X c #C2C4C5",
"6X c #C2C6CA",
"7X c #C5C9CD",
"8X c #C9CCCE",
"9X c #C4CBD0",
"0X c #C9CED1",
"qX c #CDD1D3",
"wX c #D2D4D6",
"eX c #D6D7D8",
/* pixels */
"wXwX0XwXwX9XwXqXwXeXeXeX9X9X4XqX7X0X3X,XXX^.~.!.~.<X7XXX}.}.;X%X.X;X}.^.[.^.E.[.W.Q.~.W.T.T.T._.Q.Y.W.T.I.I.I.I.K.I.Y._.oXoX`.`.",
"eXwX0X0XwXwX4X4X9XwXeXwX9X9X9X9XqX8X3X3X<X*X/./.(.*X8X<X%X;XOX;X^.^.}.|..X[.!.[. X[.W.~.~.T.[.|.T.T.T.Q.R.R.Y.Y.U.U._.`.'.`.`._.",
"qX9X9X9X1X1X,X,X4X4X4X4XqXqX9XqXqX8X7X7X8X6X3X<X$X X2X<X;X;X:X<X.X X;X;X;X.X[.^.}.[.^.[.[.[.{..X_.[.[.{.|.|.{.`._._.{.{.`.`.`.`.",
"9X1X3X1X,X,X-X,X1X1X1X4X9X9X9XqX8X0X0X7X6X8X8X6X<X X;X8X:X;X:X2X:X;X;X%X;X%X}.[.}.|.}.}.[.[.{.[.Q._.[.'.{.{.`.`.`.].`.`.`.`.`.].",
"4X,X,X,X,X,X-X,X,X1X-X1X,X4X4XqXqXqX8X7X7X7X8X6X2X;X;X7X2X7X7X6X:X;X%X:X;XOX.X.X.XOX+XOXXX|.OX[.Q.[.{.{.{.{._._.`.].`.'.{.{.{.'.",
"1X,X,X1X,X,X-X-X-X1X-X-X>X1X>X4X8XqX8X8X0X0X8X6X7X2X2X3X;X2X0X8X:X;X;X:X;X%X.X;X:X;X;X+XOXOXOX|.[.{.OXoX{._.W._.`.`.`.'.{.{.`.].",
"1X1X,X,X,X,X-X-X-X-X-X-X>X>X-X-X-X,X*X1X1X2X3X3X7X2X<X;X7X8X6X2X:X:X:X6X5X;X:X5X5X5X<X@X@X+X@XoX{.oXOX{.[._._.R.R._.`.'.`._.].Y.",
",X,X,X,X,X-X-X-X-X=X-X-X-X>X-X-X=X&X&X&X%X,X,X*X1X*X$X;X>X*X:X*X;X>X6X:X;X;X<X7X8X5X5X5X5X5X@X@X+X+XoXoX{.`.[._._._.`.`._._._.].",
"-X,X>X-X-X-X-X-X=X=X=X=X=X1X=X=X$X&X$X$X$X#X$X$X$X$X/.>X$X/.#X}.#X%X<X:X<X<X6X6X5X5X;X+X<X5X<XoX@XoXoXoX'.'.'.`.`.`.'.`.'.'.`.R.",
",X,X-X-X-X-X-X=X=X=X=X-X1X1X-X$X$X$X#X).).#X).)./././.*X%X/./.%X%X;X6X%X<X;XXX.X.X:X:X+X5X5X<X@X@X+XoX'.oX|.'.'.`.`.'._.`.'.`.R.",
",X,X-X-X-X-X=X=X=X-X9XeXeX0X8X*X).).#X%X#X/.(.$X%X>X>X;X;X%X}.%X%X;X}.%X+X<XOX.X}.|..X.X+X@X@X@X@X@XoX@XoXoXoX'.`.`.'._.W.W.E.H.",
"-X-X-X-X=X=X-X-X=X-X1X9X7X9X9X1X$X-X1X8X3X1X*X3X2X;X}.%X}.(.~./.%X:X%X%X<X<X.X.X.X.XOXOXOXOX+X@X@X@X@X@XoXoXoXoX'._.R.R.U.I.J.J.",
">X-X-X-X-X=X=X=X&X&X-X3X>X$X=X-X-X<XqX8X;X.X X;X:X X.X;X}./.%X;X<X<X;X:X:X:X:X:X;X;XOX;X.X|.OX@X@X@XoX@XoXoXoX'.R.E.U.H.U.L.H.H.",
"-X-X-X-X=X-X=X=X&X&X&X$X$X/.T.J.G.J._.+XXX;X*X;X X}..X:X X X:X;X:X<X:X@X:X5X<X5X<X:X.X{.Y.K.S.n.N.J.P.`.oXoX{.`.R.L.E.U.R.U.U.H.",
",X-X-X-X=X=X-X>X>X-X$X=XT.I.C._.A./  .P.A.%XW.^. X X;X*X}. X;X%X%X:X;X:X;X5X:X5X5X;XOXP.`.b.Y.$.a.`.'.P.|.].`.`.R.R.R.R.U.R.U.U.",
",X-X-X-X-X=X-X0X0X0X2X7Xl.U.u.Y..Xi.P.J.u.(.z.T..X;X>X:X%X X:X;X;X:X:X;X+X:X6X5XOX|.{.Z.P.3.].u.F.b.].v.Y.x.`.W.W.R.R.Y.U.U.L.L.",
",X,X-X-X-X-X9XqX8XQ.z.z.[ $.^ ( ~ p [ -.-.*.y.l.U.^.}.}.;X:X:X.X}.;X;X.X^. XOXOXY.G.Z.u.` ^ ^ p f ^ #.%.a.y.V.H.W.R._.W.R.Y.L.Y.",
">X>X-X-X-X-XqXwXqXS.*.%.=.%.] p ~ d ( ~ ^ ] ( %.y.C.~.~. X:X:X X^.(.oX{..X[..X_.a.%.` ( ^ 9 p u q f ^ ^ ( ( | u.R.R.`.`.].R.].`.",
"4X>X-X-X-X-X-X>X3X9X'._.G.S.z.] C.a.S.a.b.S.V.T.I.A.!.!.I.#X:XOX.X[.;X:X{._.OX@XY._.V.l.x.) ] z.u.l.x.S.S.x.P.J.R.T.R._.R.R.'.].",
">X>X,X>X-X=X-X-X=X%XG.n.g | ( 6 ) ) d ^ O.( S %.C.I.!.!.Z.!.}.;X;X X%X5X+XD..X|.G.=.g a | } a g X.s S 3.{ =.x.L.Y.R.Y.Y.R.L.L.L.",
";X1X-X,X-X$X$X X#X&X#Xi.J I U a P P s s O.S { ) I.~.~.~.V.!.!.I.}.%X/.(.[.b..XOX[.V.) { ..&.s ) _ D S 1.) O.F._.R.L.K.L.L.K.L.L.",
",X1X,X,X-X#X/./.,X#X/.*.I +...a v v M P 3.{ ) P I.(.(.~.G.A.I.z.V.T.I.J.I.P.[.}.E.z._ ) +.0.U B n b L 1.| | P.'.R.F.J.H.L.L.L.L.",
"1X1X1X1X1X-X=X%X X,X#Xf.6.6.I Z l l A P w.>.2.o.!.(./.(.A.l.y.l.l.y.y.V.l.T.(. X.XS.2.s.s.q.( V l V ^ 0.0.q.R.'.].R.R.R.I.L.L.L.",
"7X8X8X8X6X2X;X*X,X&X=Xn.6.6.P M l l D P s.7.0.2.I.T.!.E.a.y.` y.y.` ~ l.#.I.R.{.`.S.w.d.j.q.P V l n S 3.p.j.].'.R.R.L.L.L.L.H.H.",
"f.h.9.x.8.k.9.9.i.s.z.1.7.9.P M l z A P 0.q.1.O.>._ :.| { P S X.y ^ K Z X.P 7.} 1.2.7.w.d.7.U V l n S 7.w.0.h.p.7.h.s.z.s.x.k.h.",
"0.+.6.6.6.6.@.[ @.7.1.1.0.7.P M l z A P 8.7.1.1.:.n 4.>.:.{ P >.| O.| A :.+.2.n 4.2.7.s.s.0.U n l n Z 0.p.0.2.2.+.%.9.0.2.s.s.3.",
"..I X.I @.I o.I I I I I 6.6.R T l l { O.w.8.} ;.W k H 2.2.:.;.:.<.:.:.:.>.>.} l V } X.w.f.e...H l n | w.s.2.>.o.1.o.1.6.o.1.1.o.",
"@.5.6.R @.6.6. .{ 5.@.@.8.0.+.X.j l } 7.e.7.:.X.W l F 2.2.:.2.2.2.2.2.0.3.2.} z V :.<.8.f.w.0.F j H 0.w.p.w.w.1.0.7.w.w.&.s.s.s.",
"q.w.q.7.r.w.r.@...w.8.5.8.1.@.<.n n E 8.r.5.R A C k n K R R R { T T R { { { A k b Z K 6.r.r.w.H G H t.c.0.s.g.2.g.w.j.g.| g.j.c.",
"w.8.r.w.8.r.r.@.I w.r.8.8...6.;.n G R w.0.5.R Z b j b a K P U A U P U U D Z r k v r K 7.e.g.r.H G H ,.e.8.7.f.1.e.r.j.g._ j.j.j.",
"r.8.r.r.8.8.n.I J w.w.8.8. .6.5.l z R w.6.5.{ I D z C R O.....>.g.w...R ..X.T n b R } 7.w.r.w.H l n e.e.7.1.w.O.e.g.j.f.L w.g.c.",
"0.0.w.q.9.1.8.I J 8.8.5.1.I 1.! j j R w.@.>.I I A n C O.>.X.>.7.c.w.6.X.+.>.! n C X.X.7.e.w.t.H l n e.w.1.o.1.| 7.s.w.8.f 6.w.s.",
"U U I I U J I J J I U U .._ +.E j x R w...>.L P D k C :.>.{ } ..{ { X.| >.>.X.z n O.:.5.8.q.e.V k n &.8.| L P L _ ..} o.s _ ..X.",
"I I @.@.I J @.R U R E I o.+.5.E j k >.e...@.J P D j C X.5.Z 8 r 0 8 8 3 >.6.X.z n X.>.6.8.r.w.F k V &.8.( ( _ o.o.>.1.7.( ..0.w.",
"@.@.7.8.R ..8.8.I r.8.5.o.+.+.@.n C 7.w.O.5.{ _ D k C R :.P N N A N B m 5.E R z C o.>.7.e.r.r.t.n +.%.0._ _ 1.:.5.0.s.g.P +.f.j.",
"6.6.8.q.@.@.r.8...r.8.8.1.o.6.8.,.X.7.g.1.7.X...L C W I :.K N N Y C B r >.Y X.N T @.5.7.w.g.g.r.:.8.0.f.&.o.7.>.0.w.w.f.P +.f.c.",
"@.5.8.w.@. .8.@.J t.7.5.+...+.6.r.1.7.g.+.5.| ..( X.X.M E K M Y Y N B r @.m X.:.>.1.,.7.w.j.g.f.0.0.0.p.=.o.1.O.7.g.7.7.[ &.w.g.",
"R @.8.8.I @.@...J R R @.+.{ 1.8.w.>.7.w.X.>.I I S X.:.K E K N N F N N m >.Y @.>.5.>.>.7.w.g.g.g.0.6.1.8.+._ } ) >.7.X.<.L o.6.f.",
"K Q I I Q Q t , t m U Q E R ! <.5.X.X.>.I } K K w Z K T R M N N Y B N M 5.<.>.>.R R R X.6.5.8.7.O.} X.O.R A Z w A X.X.Y Z I X.6.",
"w t t m N t t , m U U U K K Q R R Q K R M M N m 0 8 8 M K m m B m B N r R X.K M t M M M R R ! E A Z K K K Z M w m Y Y w w M K R ",
"K R +.E K Q K K M Q { 1...Q ! <.E E I ..I E Q R b b _ >.1._ Z s s s s P ..X.{ ..{ ..R K >.+.6.1.D D ;.;.>.:.2.E } X.;.| N } T { ",
"5.7.g.6.@.5.7.5.Y >.8.k.g.,.<.t.t.@.h.m.0.n.0.q.w b s.n.k.s.9.9.6.+.1.6.p.j.m.m.N.N.m.m.g.e.w.w.{ D 2.e.w.p.v.e.k.m.v.v.:.v.f.v.",
"@.&.q.@.E Q ;.R K E e.m.k.e.c.v.m.w.N.F.f.D.s.j., P S.D.k.j.c.j.f.p.p.p.w.d.k.b.M.M.N.N.c.t.e.g.&.0 3.<.;.;.r.t.8.w.w.f.4.e.f.M.",
"U u 6.8.@.q.7.J M s _ 9.+.>.b.D.F.j.M.F.f.c.>.o.> &.M.N.o.{ j.h.s.p.f.f.f.j.j.v.N.M.F.F.F.M.k.#.` 0 W 2.t.,.2.4.7.=.%.7.T w.g.S.",
"J y q.n.8.N.a./ m 6 e p 7 R k.F.F.w.S.F.s.%.a A : o.D.N.{ K f.q.0.0.B.B.7.8.8.0.f.j.c.b.D.F.p.[ %.[ m 2.c.d.b.c.m.) s / A %.d.e.",
"q 1 &.a.I 9.&.h m 6 a q 9 } h.P.x._ 9.a.{ f a P 4 ( k.p./ ( a.0.6.6.B.c.1.2.1.1.0.q.p.s.f.b.%.g %.' S } w.2.c.t.s.) S g 0 2 1.1.",
"J / J f 9 h 5 # w d ` s p A _ F./ r p d r g a S 4 [ ( 5 5 u u ] q.f.B.B.p.3.7.7.8.0.w.s.=.` g 6 6 q [ 3.j.p.v.O.( S ^ g 0 6 g d ",
"1 5 / h e h ; ; 0 5 y < 3 { #.p.f r 9 s p ( a g / / 1 + + + + 4 0.s.e.c.p.2.2.C Q t.p.0.g ( f f u [ *.a.a.d.| = 5 / 6 6 0 p p q ",
"1 y J ; 7 J y ; 8 ; ; + 4 s J $.a w h ) 9 ( 6 d u 6 2 6 .   4 5 2.P <.t.O.9.:.- - X.1.{ $ p p 7 h y d u i ) & : 2 2 / / 8 6 ] ( ",
"5 y u ; 1 y J / U #.J + 4 t 5 u p 8 6 f 3 f 6 / [ g 2 :   X 1 a &.R ;.7.O.:.) = = ) O.) & y g d y 2 h p ' y.( %.%.d 7 / 0 [ 9 6 ",
"7 1 y ; $ < < J t J ' ; a t 1 y 6 : 1 f ( #.f f u J | : + & e o.| | o.&.{ ^ < < < < S O.& & % O u g ( f #.' #.$./ ] 7 7 0 p & 1 ",
"J ; $.*./ < < J , 6 J h h 8 5 u 5 : 5 y i f 5 2 2 J _ % X X e 1.| &.3.0.) { + & $ + S +.= $ y y u 6 p d u u d d u d u 2 > d ( g ",
"$ y / / *.*.i 5 , ; 4 h q 8 p e p : ; 1 1 1 2 ; & 2 s @   O q 1.1.&.9.a.O.+.O O * . ) 0.% + 2 %.] / 2 p 9 y 7 6 4 5 6 @ # # 5 < ",
"; J i J / / / i , q f J 6 , J h f 6 % O + $ 6 7 X % a # % & e &.3.3.=.0.7.o.  O O   | p.2 + & 5 f d 7 ( ( S 3 > 3 = 9 & @ @ & + ",
"; 5 1 1 y 1 J J 4 h / h % ; : q ~ ' i.f . & 7 2 & % a @ _ 3 e &.9.&._ 9.3._ .       S 1.= + + % % + + g p L ) S a S ) 3 o $ + + ",
"; 1 1 ; < < u y : ; 5 5 ; # 1 1 7 y h ; . X 2 ; % 8 p % 1.p q 6.9.&.] &.1.)         9 +.3 & & p f p ~ g S ] ( L S S ^ a o + * O ",
"y J i u 6 q 1 2 @ : u 6 + # & @ % 1 1 & . X ; + % D = 9 1.Z & { 1.&.&.3.&.U     +   s &.Z + + d ` / ~ p 4 ^ a a a a e ^ 3 < < & ",
"J / / J J  .; O @ @ 5 / J q ; & + @ 1 $ .   X   2 T % g 0.{ % =.9.&.&.1.9.| + 2 a   _ 1.o.: * < y i -.' ` ~ 6 9 9 9 7 p ^ ` ` ~ ",
"f u h u f  .y   o ; 2 y / ' % +   . ; ; .     + 3 P = o.p.+.2 +.7.o.S _ p.s.P s 0.4 f.f.q.a + & & < y y d y < & + + < y u p y < ",
"5 5 7 2 7 h 5 O o + ; 1 2 1 @     . % 2 X @ # # 2 M 4 ) 7.| 3 ..9.O.S R o.9.L P _ J p.s.f.e O % & + 2 6 5 7 < % $ < < 5 u y y = ",
"# X X O % u #./ h 4 ; + + ; 2     . X 7 # % % % = K O.1.1.+.&.1.1.0.0.p.7.1.1.9.6.6.0.p.q.9 * & . + < < = $ & & $ & + $ < < < < ",
"1 $ ; ; 1 y / *.i.*.q + X @ 2 + X .   % % & % : - Z { +.o.o.O.O.+.&.1.6.1.6.6.0.6.9.p.0.0.a *     * & + * * * + < + O O   * < < ",
"% $ ; ; 1 5 5 5 6 ; # O O & 7 # X . . @ = o = # > 4 a P I ..&.6.6.9.0.q.0.0.s.s.p.p.q.0.9.Z O   O + %   .             . .   2 7 ",
"1 1 % ; 1 1 ; ; ; # ; O + & 5 @ X .   @ @ @ : o e A S P ..&.+.0.q.9.9.9.&.0.s.s.f.k.f.s.9.L   O O + & . .   * *         .   $ 2 "
};
