/* XPM */
static char *abc0e07bf1494fd0b548b9af1c7402d7Y5ZmZuYPYO0flalc[] = {
/* columns rows colors chars-per-pixel */
"64 64 225 2 ",
"   c #050609",
".  c #080A0D",
"X  c #0A0E12",
"o  c #0C1216",
"O  c #0D151A",
"+  c #0E191D",
"@  c #111A1E",
"#  c #11161A",
"$  c #0F1C21",
"%  c #121E23",
"&  c #181F24",
"*  c #142126",
"=  c #192226",
"-  c #15242A",
";  c #19262B",
":  c #16282E",
">  c #1A292E",
",  c #162A32",
"<  c #1C2C33",
"1  c #1D2F39",
"2  c #172630",
"3  c #1E3036",
"4  c #1E323B",
"5  c #17303B",
"6  c #0F2026",
"7  c #212B2E",
"8  c #212E33",
"9  c #282E35",
"0  c #223136",
"q  c #23343C",
"w  c #26383F",
"e  c #2B393E",
"r  c #2A363B",
"t  c #363939",
"y  c #1E3542",
"u  c #233741",
"i  c #253A43",
"p  c #2A3C44",
"a  c #263D4A",
"s  c #2A3E4A",
"d  c #303E47",
"f  c #2D414C",
"g  c #2A404B",
"h  c #31454D",
"j  c #374246",
"k  c #2D4452",
"l  c #2F4957",
"z  c #2B4658",
"x  c #2E4A5C",
"c  c #274052",
"v  c #314652",
"b  c #334A55",
"n  c #394D55",
"m  c #334C5B",
"M  c #344B5A",
"N  c #39525D",
"B  c #36505D",
"V  c #2E4C62",
"C  c #2F4F68",
"Z  c #324E63",
"A  c #345164",
"S  c #3A5462",
"D  c #3E5965",
"F  c #35536B",
"G  c #3A5669",
"H  c #3C5A6C",
"J  c #36586F",
"K  c #345570",
"L  c #3B5C74",
"P  c #395E7A",
"I  c #375A75",
"U  c #3C617D",
"Y  c #3F6176",
"T  c #454C4E",
"R  c #46555D",
"E  c #515255",
"W  c #4C4F51",
"Q  c #435D6B",
"!  c #4B5C65",
"~  c #525D64",
"^  c #415F74",
"/  c #5B666B",
"(  c #43637B",
")  c #4B6776",
"_  c #5A6B79",
"`  c #49626D",
"'  c #636A77",
"]  c #647279",
"[  c #626567",
"{  c #3D6485",
"}  c #3E678A",
"|  c #3F6A8C",
" . c #3D6992",
".. c #416684",
"X. c #446984",
"o. c #426A8C",
"O. c #4A6B84",
"+. c #5F6E82",
"@. c #4E738B",
"#. c #527284",
"$. c #57778B",
"%. c #456D95",
"&. c #487598",
"*. c #557994",
"=. c #687686",
"-. c #707D86",
";. c #6B7C91",
":. c #717B93",
">. c #4975A2",
",. c #4B7AA5",
"<. c #4E7DAA",
"1. c #4777A2",
"2. c #527EA8",
"3. c #5D839C",
"4. c #6E8289",
"5. c #61859B",
"6. c #68889B",
"7. c #748895",
"8. c #708089",
"9. c #5684A8",
"0. c #578BB4",
"q. c #5A92BC",
"w. c #5A91B9",
"e. c #4E85B5",
"r. c #678BA4",
"t. c #778BA6",
"y. c #6591AE",
"u. c #6B93AC",
"i. c #6F93A6",
"p. c #7694A8",
"a. c #6695B4",
"s. c #6C9BBA",
"d. c #6696B9",
"f. c #7699B2",
"g. c #769DB9",
"h. c #648FB6",
"j. c #74A2BD",
"k. c #7CA4BB",
"l. c #5492C3",
"z. c #5A98C6",
"x. c #589AD3",
"c. c #649DC5",
"v. c #66A1CA",
"b. c #6BA5CA",
"n. c #73A6C4",
"m. c #7BA8C6",
"M. c #6CABD3",
"N. c #66A6D1",
"B. c #75ADD0",
"V. c #74B1D5",
"C. c #7BB4D5",
"Z. c #7EB9DC",
"A. c #79B6DA",
"S. c #839CA6",
"D. c #81A0B8",
"F. c #8BAFC4",
"G. c #83ACC5",
"H. c #86B2CB",
"J. c #8CB5CD",
"K. c #93B5CB",
"L. c #93BACF",
"P. c #84B5D4",
"I. c #84BAD7",
"U. c #8BBCD6",
"Y. c #84BCDB",
"T. c #8CBDD9",
"R. c #8BB5D2",
"E. c #93BDD5",
"W. c #91BEDB",
"Q. c #99BDD3",
"!. c #80AFD0",
"~. c #82BEE2",
"^. c #8DC0DB",
"/. c #9CC2D7",
"(. c #94C2DA",
"). c #9AC5DC",
"_. c #97C4DA",
"`. c #A2C9DD",
"'. c #AACCDE",
"]. c #A3C2D5",
"[. c #8CC4E2",
"{. c #86C1E3",
"}. c #92C6E2",
"|. c #94C9E6",
" X c #9CCBE4",
".X c #9BCEE9",
"XX c #97C9E5",
"oX c #9ED0EB",
"OX c #A4CDE3",
"+X c #A9CEE3",
"@X c #A5D0E6",
"#X c #AAD1E5",
"$X c #A4D2EA",
"%X c #AAD5EB",
"&X c #AFD9ED",
"*X c #B3D4E5",
"=X c #BBD9E7",
"-X c #B3D6E9",
";X c #B5D8EA",
":X c #BCDDED",
">X c #B9D6E5",
",X c #BEDFF0",
"<X c #BFE0EF",
"1X c #BFE0F0",
"2X c #C2DDEA",
"3X c #C1DFED",
"4X c #C4DEEC",
"5X c #C0E0EF",
"6X c #C3E0EE",
"7X c #C3E1EC",
"8X c #C4E1EF",
"9X c #C5E1EF",
"0X c #C5E1EE",
"qX c #C6E1EF",
"wX c #C5E2EF",
"eX c #C7E2EF",
"rX c #C5E1ED",
"tX c #C2E0EB",
"yX c #C9E2EF",
"uX c #CCE3EF",
"iX c #C5E2F0",
"pX c #C6E2F0",
"aX c #C7E2F0",
"sX c #C6E1F0",
"dX c #CAE3F0",
/* pixels */
":X;X:X:X&X,X;X:X:X:X:X;X<X:X<X:X:X7X3X3X3X3X3X4XiX3X8X4X8X8X8X8X8XyX8X8X8X8X8XyX8X8X8X8X8XyX8X8XyXeX8X8X7XwX7X8XeXeXuXeXuXyXyXyX",
":X:X;X:X,X,X,X,X,X,X<X:X,X<X<X<X,X7X7X3X3XiXsX3XiXsXsX8X8XsXyX8X8X8XdXiXyX8XyX8XiXiXeXeXeX8XiXiX8XeXeXeXiXeXiXiXeXeXuXuXuXuXuXuX",
":X:X:X:X:X:X,X&X:X,X,X,X:X<X<X<X<X<X7X,XiXiX3XiX8X8X8X8XyXsXiXsXyXdXsXiXiXsX8XsXeXiXiXsXeXeXiXiX8XeX8X8X7XeXeXeXeXeXuXeXyXyXuXeX",
";X:X;X:X:X,X,X,X,X:X:X,X<X<X:X<X<XiX,XiX,X3X7XiX8X8X8X8XiXiX8XsXsXsXiXiXiXdXsXdXsX8X8XsXeXeX8X8X8XrXeX8X7XwXwXeXeXeXeXeX8XyXuXeX",
",X<X<X<X&X,X,X:X,X;X:X,X<X,XiX<X<X<X<X,XiX3X3XiX7XsX3XiXiXsX8XyXeXeXsXdXiXeXeXiXsXsXsXsXsXsXsXsX8X8XeX8XrX7X7XeXeXeXeX7X8X8XrXrX",
",X;X;X<X;X,X,X:X,X<X,X,X:X,X,X:X,XiX<X7X,X,XiX3X7XsXiXiXsXsXiXeXeXeXiXeXyXsXsXdXsXsXsXsXsXsXsX3X8XeX8X8X7X7XrXrX7X7X7X7XrX7X7X2X",
",X,X<X,X,X:X:X,X,X,X:X,X<X,X,X,X:X,X<X<X,XiXiX3X7XiXiX3XiXsXiXeXiXiX8XiXdX8X8X8X7XsXsXsXsXsXsXsX8X8XrX8X7X7XrX7X7X7XtXtXtXtX2X>X",
",X;X;X,X,X<X:X,X<X,X,X,X:X<X,X,X,X<X<X<X<X<X3XiXiX3X7XiX7XsXiXiXeXeXsXsXsXyX8X8XsXsX3X3XsX4X3XsX8X:X7X7X7X7X7X:X=X=XtX=X>X=X=X].",
":X:X:X:X:X:X:X,X;X,X<X3X:X,X,X,X,X3X,XiX,XiX7X3X3XiXiXiXiXsXsXsXdXeX8XiXsX3XsXsX3XsX3XsXsXsX3XsX>X%X%X:X,X;X>X'.L.].'.].].+X'.F.",
":X:X:X:X:X:X:X,X,X;X:X7X3X:X,X7XsXsXsX3X,X7X8X8XiX3X3X3X3XiXsX3XsX8X8X8X4X2X3X6X3X3X3X3X4X4X3X3X3X4X%X{..X-X@XOXF.g.f.H.F.F.K.D.",
":X:X:X3X,X,X3X,X<X:X<X7X3X:X:X,X3X3X:XsX8X4XsXyX8X8X7XiX,X3X3X3X8X4X8X7X3X3X4X2X3X3X3XsX4X4XyXyX4XsX3X;X+X-XOX+XJ.G.g.G.L.F.=.=.",
";X,X:X:X:X;X;X3X<X<X:X:X:X3X3X:X3X3X3X:X:X3X4X8XsX4X8X3X8X8XsX4X3X:X2X:X3X=X3X2X2X2X4X4X4X4X4X2X4X4X2X2X+XE.J.W.k.5.p.6.r.=._ _ ",
"-X-X;X-X-X-X%X-X>X:X:X:X:X:X:X:X3X:X>X-X-X:X-X:X:X:X:X:X3X3X3X;X-X-X;X*X+X*X'.>X*X'.=X2X=X;X*X-X:X2X2X>X`.].K.f.#.u./.Q.Q.K.6.#.",
"#X+X+X#X+XOX+X+X X#X*X:X:X*X XXX-X*X#X+X#X#X@X#X@X;X;X;X:X3X2X-XOX+X+XR.h.h.c.g.h.0.h.'.+X+XOX+XOX*X*X'.W.G.g.y.5.y.E./././.G._ ",
" X+X+XOXP.P.P.I.!.`.OX#XOX@X#XOXOX`.W.W.T.(. X@X@X$X$X@X-X-X*XOXW.W.W.m.>.>.>.%.2.2.<.R.E.W.R.T.(.`.)._.P.d.u.d.u.@.G.U.P.R.G.*.",
"C.P.C.c.( ^ P L @.R.T.).).).`.`.`.f.^ ( X.O.m.^._.^.XX XOX X).*.X.( ..o.,.>.>.>.,.2.<.H.y.( ( ..X.g.U.E.G.t.f.r.;.@...Y ( ( H #.",
"P.C.B.0.v v s s #.R.W._._./.E.E.E.9.M M M M n.R.^.^._.(.XX).P.L M M M ( m.m.q.,.<.<.m.R.r.b v s M 9.J.E.m.5.y.g.m.m.^ v v M M c.",
"u.Z F M M M v s v G K *././.5.F m v s v b h M F { s.^.R.3.*.r.O.p.p.t.t.5.$.o.9.0.&.Z Z M s s v s v m F d.s.g.Z a z s s v s v Z ",
"2.h s p s p p s h s h *.R.R.*.h d h v v s s d s l k.OX-X;X;X;X&X#X#X#X%X%X#X@X+XQ.K.S s s s v M s k s k d.K.S.~ T v p s v v v d ",
"Z p v v v v v s s p h s s s z v b v s v v v v d m D.@X$X$X&X%X%X%X%X%X$X%X$X$X$XOXXXL.A M M Z v v v s M C E E ' E E p s z s v p ",
"q u s s s v v s h s h i w e g h s v d v d v v v ` `.#X%X&X&X%X&X&X%X%X%X$X$X%X$X XXX}.r.v h f k v z s u d [ t.t.t.[ t u d v s s ",
"d h s s v v v v s s s h g j g f b M Z v v s s v i.OX#X%X$XoXoXoX.XoX%X$X$X$XoXoXOXOX(.W.G k v v v p u q d -.+.=.+.=.j v s s s s ",
"v b b d b v d b h n h p e g f h M b M v z s s v f.).$X%XoX.X|..X.X.X.XoX$XoX$X$X.XOXXXW.G k m k s s u 1 T -.' :.+.:.E u i s v M ",
"i s d v b v v s p s p p p f h b M v v v v s d v k.).@X$XoXoXoXoXoXoX.X[.|.{..XoXXX X XE.Q f i s p i u q E t.t.:.:.:.E d u p d v ",
"p p p d j g f g e e g j p e f l n M s d p p s v g.). X@XoXoXXX|.[.~.{.[.|.|.|.oX.X X^.I.) g g a s i i m ! ' :.+.=.~ t T 8 r p p ",
"v v s h g p h D Q N f i g g j h v M v v s s p v D.T.Y.Y.Z.Z.^.{.[.{.[.[.|.XX|.[.^.Z.A.I.O.k f g i s m v s s ~ +._ 9 # t d p p d ",
"s s e w i f ` ! R Q D i e e f h v v s h s p p p y.V.V.Z.A.Z.Z.A.Z.^.[.^.}.(.[.^.Z.A.V.V.3.i w i s k m u : 2 5 N d p q 9 t r i i ",
"r e i 8 q n 7.S.S.7.! p e p f h v b h p p p p p @.z.e.0.q.w.q.c.v.v.v.v.M.B.M.M.z.v.q.q.F 4 i g s v i 4 5 * 2 - 8 a 2 u n b i 0 ",
"f d w q q R 8.] -./ / p e p f l b h d i i i p i { o.U P ....%.&.{ | | &.1.1.1.&.{ | { %.A i s v w - % % $ $ , y 5 5 , $ 2 < s i ",
"p p e r r ! 7.] 4.] 4.j p p e g d s i i w 9 0 q A i 4 q i i i g g i y 4 i i i i 3 3 3 i k i i m i < % O o + O 6 6 % $ + # - s h ",
"e r i e s n -.-.] ] ~ 9 w e e h s s p p q i e q k g 3 = ; > w w < 3 4 e e e e q 7 3 0 q s i k l 4 < 2 - 6 * - * $ 2 $ * % & ; v ",
"i s i i s 8 T ] ' ] r 7 e p l f s p s p p p i q k p e q 3 e h B n h b n n n b h h b k Z m f b g 5 1 , 2 < - 5 l g y % % * % - Z ",
"w w i i w 8 t / / ~ 7 = r w p p g g p p g n 9.O.A m k f l b l n n g g h n N h 0 q q g m 0.n.j.5.H g g g g 5 4 g 4 4 < 6 * % : e ",
"0 r 0 w b f i 9 8 9 = > i n ) 5.3.3._ 3.#.H.(.A.z.l g g g g b f h B l S D H S n f h n l q.V.Z.Z.^.C.D.(.D.i.#.h , , < $ % 6 - g ",
"0 s H Y m q ; @ @ > 4 i #.J.U.^.^.^.^.I.I.I.Z.M.q.k g g h N H N Y Y D D D H N g g 3 x Y l.N.V.A.I.^.^.^.^.(._.J.H 5 : O + 6 * i ",
"q D l m q > 7 8 4 u v D m.C.M.b.M.N.v.z.s.v.z.z.x.F H H n g h h l n n h n h h h k g g J x.N.N.z.c.s.V.V.n.n.j.j.s.i + o O * % w ",
"0 i e < = 7 0 i w p < h ( { U %.{ } J F x Z C C  .i g g g g g f g n h g g 4 : 3 > 3 : 4 l.| F A J A H U G N N N D g o X + % % w ",
"0 j 7 @ = 1 s i < O O = F G m A J | B F a a a a g 4 4 4 4 4 0 f p w p g w i g 3 * 6 * -  .{ g k g g g h h f g l B 3   . + % $ w ",
"d r @ & > i h > X % > 9 4 2 & : 4 z , , : * 6 * 6 3 3 4 u g n B N D D N h h g n h i g : y c * 6 6 6 ; * * * * : < :     + + - 0 ",
"e 7 o > , s 8 # @ > 7 < q & $ @ $ < % % @ + o o 6 w 4 4 i u q 3 q w n 3 * w e g g w 3 : 6 O X X o o o o o o o + < @     o + < < ",
"d 7 X 1 u h % & & 7 ; = 0 = 8 w i c I z 5 - : * 4 y 3 3 3 y g g w 5 : q 3 : 3 3 w w 3 p e 3 : 6 6 3 g 3 4 h 3 4 a %     O O 1 - ",
"e & . : v < # & & $ @ @ i q * < 1 z V I C 1 < 1 i 4 c F F m m B B B N b h w 3 w w w 5 w 4 f g k l r g b N b f g m : $ o O O < - ",
"9 ; X 2 v i 0 & = ; - O f b Z x k c K a k x c y < : , - + * : * : 6 : 3 : : 3 4 w 4 3 l V i i < 7 3 * $ $ = > e k , - % # % < > ",
"d 0 p u z q < > 3 0 D 3.A < * 4 1 & k P z z y k z c a 5 3 < 4 : p h : 6 : a B l 4 3 5 w i i b g g h h e e b p h L V , , < - , q ",
"J.3.@.u 1 < < s $.j.C.M.{ s c M F Y V 4 u % - 4 y 4 i i g l y g g w l N g i 3 w h h B k l D D N N N B h g w 3 g U b.n.y.r.3.r.u.",
"_._._.U.H.m.J.W.U.I.V.M.P c m 4 < 1 V x k z g c 4 5 , 1 i y q w * $ : q g 4 w 3 3 i 3 4 5 y , 3 q e g m Y @.3 > Y N.C.U.U.(.(.(.",
"(.(.^.(.(.(.W.U.I.A.M.M.{ 4 5 < z A i i A H x i g g g 3 - - u k p q w 3 q 3 6 6 4 b g b Y J i 5 > : > q q N w 4 C l.V.I.I.U.^._.",
"U.I.U.(.^.(.(.U.I.A.A.V.&.i y z K F l a i i u 4 g 4 < u i g i q i k i 6 6 3 w b a w i 5 , l a l b n b B k f i B I z.M.V.V.C.C.C.",
"9.a.s.d.n.a.d.a.w.w.c.v.{ a c 4 g V c l f c , : - % $ % * * - : 3 w : 5 4 3 3 r 4 w w y 4 U F b l N Q n h w b h J e.w.9.&.9.U w.",
"h h m F A h m l L m F 1.I < - * : y a 4 g g 4 : < < 4 q i i i 4 < q 3 w 4 < : : 3 3 * , J x q 3 3 q g g g l b g A { G k c x l H ",
"e q q q g p g g g f q c P x i i < z I < i V x a y z a 1 4 < : < 3 - : 3 i g i s w 4 3 H J g 3 4 g g N n n h g w g 5 : 3 - 7 : ; ",
"o o # # o o o # o % $ O a k c a V i , c U z k a F J F k k s i i l u f k x g A L H B l | { | F F g g h f h h h g 3 : + + + + @ $ ",
"o o o $ o $ @ @ O @ O + Z x A } | J J z 1 F y k l 4 5 i i i a < w < u g i , q z C x 5 : 4 z a g B l f g g g f g q 3 > > - - > 7 ",
": : - > ; ; - = - - * * 4 4 y i < q a i , : - : * + - * $ O + $ + 6 + 6 % - : : * 4 : - y $ : $ - ; - * 6 : < 3 w > - - > q 3 > ",
"e r r g 0 : 3 q 3 * < > * * - < < @ % * % * + + 6 + + + + $ - , 4 - : 4 2 : , , < , 4 : a < 4 = < ; ; : 3 e 3 < 3 3 > > > > 3 q ",
"g e 0 r j q > - = $ 0 1 q q - > < q i s l c q a 4 4 $ O $ , c z u 5 , * % $ $ * * 2 1 - a k s 1 < < ; 3 b e 3 < ; ; 3 q w 3 3 0 ",
"r p e d s b A m f i 3 $ * @ 0 b v i h p < f Z i z - $ 1 1 1 - % + * $ * 2 1 u a f k g k z i b M b v u q 0 0 i w i g > ; = = > 0 ",
"; = 8 * - r < > > 3 3 w 4 : > * > = i w i > y 2 2 $ $ % , - , y 4 < i i 1 : - u q u y 4 i 4 - > = < < - 3 f f q 0 0 w s f f g e ",
"i e w i q q q 3 < 3 3 i g k u 1 1 q s 0 8 - c a 4 O $ % , u i * % % , : $ & & % , f < o - 4 a < 3 > < 1 < * > f i i 3 < < q > > ",
"8 8 7 7 = = = * * = = ; > s k b A 1 @ * 2 2 > & : , - % & 1 q % * O - < - : % - : < , i 1 * < > * * - - > w > < < q < e p w 8 > ",
"8 e S s e w q f k i q q 3 > < : q q - L x a 4 i 4 < , < % * y < < < * @ 2 % * * * * < * - 3 3 q w 4 u i e i w u g g f q 0 s w * ",
"< 8 e j 1 = < : - 4 < > : > 3 0 < > $ - * , 1 , - % % , i : % ; i 4 i u * - u , 6 * * * o > @ + % = > > * - w s n n p b n p n b ",
"= * > 7 * * % - > q s z g c q * O & k : @ o O O % % O O * : < + o @ - < 5 , 4 * + 6 + * h < > 3 3 4 < > > 0 > < q g b p b j p h ",
"g g h b 1 8 1 q 2 0 s b a q > q c s Z s O * < q < < i 1 * : < V f - 1 1 < 3 - < < , * * < w 7 p g j f i N S h > < < > q n p b n "
};
