/* XPM */
static char *f7eab3fb1be243a09df964116f2eff85qXApVnQmGBswyqnW[] = {
/* columns rows colors chars-per-pixel */
"64 64 201 2 ",
"   c #0F0A0D",
".  c #100B0F",
"X  c #0F0D11",
"o  c #120E12",
"O  c #0F1010",
"+  c #131215",
"@  c #1A1516",
"#  c #1E1817",
"$  c #15141A",
"%  c #1A1519",
"&  c #17191E",
"*  c #1C1A1D",
"=  c #221D1D",
"-  c #25201E",
";  c #171922",
":  c #1B1D23",
">  c #191E29",
",  c #221E22",
"<  c #1E222A",
"1  c #1F2123",
"2  c #1E2531",
"3  c #252223",
"4  c #292524",
"5  c #2C2827",
"6  c #23252B",
"7  c #292629",
"8  c #26282F",
"9  c #2C2A2B",
"0  c #302E2D",
"q  c #32302D",
"w  c #252932",
"e  c #2B2D34",
"r  c #292E38",
"t  c #242C3A",
"y  c #302E31",
"u  c #2E3036",
"i  c #2D323B",
"p  c #27303C",
"a  c #323234",
"s  c #32353B",
"d  c #35383D",
"f  c #393A3B",
"g  c #2B3441",
"h  c #2E394A",
"j  c #313640",
"k  c #353A44",
"l  c #393E44",
"z  c #353D4A",
"x  c #393F4A",
"c  c #333F51",
"v  c #3C4046",
"b  c #3D434C",
"n  c #3E4551",
"m  c #384556",
"M  c #41464D",
"N  c #444A4F",
"B  c #424242",
"V  c #404651",
"C  c #444A53",
"Z  c #494E56",
"A  c #464D59",
"S  c #494F5A",
"D  c #4A5056",
"F  c #45505C",
"G  c #4C535C",
"H  c #51565E",
"J  c #51585F",
"K  c #515454",
"L  c #4E5661",
"P  c #4D5965",
"I  c #505760",
"U  c #535A64",
"Y  c #585E67",
"T  c #555E69",
"R  c #595F68",
"E  c #56606A",
"W  c #5B636C",
"Q  c #596167",
"!  c #5D6671",
"~  c #5E6973",
"^  c #64686D",
"/  c #636B74",
"(  c #6A6E74",
")  c #656E79",
"_  c #686F79",
"`  c #6D7176",
"'  c #66727C",
"]  c #6C737B",
"[  c #6D787F",
"{  c #72767B",
"}  c #75797E",
"|  c #797B7D",
" . c #6D7681",
".. c #6E7982",
"X. c #6F7D88",
"o. c #757C82",
"O. c #797D82",
"+. c #747E89",
"@. c #7C8186",
"#. c #76818A",
"$. c #7D848A",
"%. c #7E888F",
"&. c #768087",
"*. c #7D8691",
"=. c #7E8A93",
"-. c #818384",
";. c #81868B",
":. c #83898E",
">. c #8B8A89",
",. c #95928C",
"<. c #848C93",
"1. c #888E94",
"2. c #848F99",
"3. c #869096",
"4. c #8A9296",
"5. c #86919A",
"6. c #8B949B",
"7. c #8E999E",
"8. c #909394",
"9. c #919A9E",
"0. c #989B9B",
"q. c #928E85",
"w. c #A0988B",
"e. c #AEA699",
"r. c #8B97A2",
"t. c #8E99A2",
"y. c #889AA9",
"u. c #939DA2",
"i. c #999FA2",
"p. c #939EA9",
"a. c #96A0A6",
"s. c #9AA2A6",
"d. c #96A1AA",
"f. c #9BA5AA",
"g. c #9EA8AD",
"h. c #9AA7B2",
"j. c #9DA9B2",
"k. c #A2ABAE",
"l. c #A1A5A8",
"z. c #B7B3AB",
"x. c #A3ADB2",
"c. c #A2AEBA",
"v. c #A8ADB3",
"b. c #A6B0B4",
"n. c #ABB3B6",
"m. c #A5B2BC",
"M. c #ACB6BA",
"N. c #AEB9BD",
"B. c #B2BBBD",
"V. c #B8BEBF",
"C. c #B2B6B7",
"Z. c #C2B9A8",
"A. c #C3C2BA",
"S. c #A9B6C1",
"D. c #ADBAC3",
"F. c #B3BDC2",
"G. c #B6BFC4",
"H. c #B6C0C3",
"J. c #BBC3C4",
"K. c #B6C3CD",
"L. c #BCC5C9",
"P. c #BFC8CB",
"I. c #BCC8D1",
"U. c #C1C6C6",
"Y. c #C3C8C6",
"T. c #C4CACB",
"R. c #C9CECC",
"E. c #CED1CD",
"W. c #CBD0CE",
"Q. c #D1D4CF",
"!. c #C3CDD3",
"~. c #CACFD0",
"^. c #CDD3D2",
"/. c #CAD3DA",
"(. c #C5D0D8",
"). c #D2D5D1",
"_. c #D5D6D1",
"`. c #D2D6D4",
"'. c #D5D9D5",
"]. c #DADBD6",
"[. c #D5DADA",
"{. c #DDDED9",
"}. c #DADDDA",
"|. c #DEE1DC",
" X c #E1E3DD",
".X c #CDD7E1",
"XX c #D4DCE2",
"oX c #DAE2E7",
"OX c #DBE3EA",
"+X c #E3E5E0",
"@X c #EAEBE5",
"#X c #E1E9EE",
"$X c #EEEEE8",
"%X c #E7E8E2",
"&X c #F3F2EA",
"*X c #F9F6ED",
"=X c #E5ECF1",
"-X c #E9F1F5",
";X c #EBF3F7",
":X c #F5FAFC",
">X c #F2F7FA",
/* pixels */
"s.k.M.B.F.V.P.Y.R.Q.E.R.R.E.E.A.Y.V.V.Y.E.R.T.J.J.H.B.n.x.x.v.g.0.3.3.3.$.%.%.%.%.$.%.#.&.#.#.[ [ ) ' #.=.=.=.#.[ ' ' ' [ %.5.7.",
"a.x.C.B.J.Y.R.E.Q._.Q.E.R.E._.].E.V.V.E._.Q._.Q.E.T.T.J.J.B.B.C.s.7.i.s.7.%.#.#.%.=.=.%.%.5.3.=.&.&.&.%.=.7.=.%.&.[ ' ' [ &.u.a.",
"s.x.C.H.J.A.R.E.Q._._._._._.].].Q.U.V.R.'.{.{.{.].`.W.T.V.C.C.n.k.s.k.n.k.6.%.&.%.3.6.6.6.u.7.=.&.#.#.=.u.a.5.=.=.%.&.&.X.%.f.x.",
"g.b.M.V.J.P.W.^._._._.|.{.{. X|._.Y.U.Y.].|.|._.'.^.~.T.U.M.n.C.x.k.g.k.k.a.3.%.<.3.a.a.f.g.a.7.%.#.%.7.a.h.a.7.7.7.=.%.&.%.7.g.",
"s.n.C.V.P.R.^.'.].].].|.{.|.{. X}.R.L.V.T.|.|.].].'.).~.T.C.n.V.V.n.n.n.g.9.7.3.6.6.a.s.f.f.f.t.%.%.3.3.a.f.a.a.d.a.7.=.%.%.5.g.",
"i.x.B.J.Y.W.`.`.|.|.|.|.{.].].{.'.^.T.L.W.[.].|.}.}.}.'.~.J.C.R.R.n.C.C.n.k.g.u.3.5.d.d.f.h.f.a.7.=.=.3.7.f.s.s.d.u.7.7.%.%.=.f.",
"u.g.B.P.R.^.'.`.].|.|.|.|.|._._.^.R.T.T.`.'.[.[.[.}.{. X{.R.Y.`.E.C.N.J.P.Y.B.u.9.9.f.k.x.h.f.d.u.3.%.%.=.u.u.7.d.f.a.7.3.=.3.a.",
"9.k.B.Y.^.`.|.|.|.|.|.|.|.|. X|.'.^.W.~.[.}.+X|.}. X@X&X&X X'.`.R.V.A.Y.B.V.V.k.a.a.g.M.m.x.g.a.u.=.%.%.3.7.u.7.a.g.a.a.7.7.=.7.",
"u.b.P.^.'.'.[.|.|.|.|.oX X@X X|.[.`.R.W.|.@X$X@X X@X&X*X&X@X X]._._.E.J.n.n.V.n.i.f.f.n.k.s.u.7.7.%.3.%.%.7.a.u.a.g.a.u.=.7.=.7.",
"f.n.P.^.'.[. X@X$X|.|.|.|. X@X$X+X'.T.T.[.@X$X$X%X|.[.'.|.].Y.C.U.U.B.x.l.g.b.k.0.7.7.i.a.f.s.a.9.7.3.=.%.7.a.u.a.a.a.7.7.=.%.%.",
"b.H.W.^.^.[.|.|.^.W.`.`.|.|.$X&X@X|.E.J.R. X%X|.].^.H.C.B.V.M.x.n.n.k.g.u.7.7.7.4.6.7.f.f.s.g.g.a.7.7.=.3.u.u.u.u.a.u.7.7.3.=.3.",
"C.J.P.W.P.P.P.J.V.J.J.J.L.P.W.^.E.'.E.B.P.[.'.V.L.J.C.B.B.B.N.l.x.B.k.s.i.0.4.4.3.4.7.a.f.b.a.9.7.u.g.7.=.7.g.f.a.a.u.d.g.7.3.7.",
"N.J.J.J.J.H.H.B.F.H.J.B.H.J.J.H.H.J.J.n.B.J.T.J.P.H.V.J.F.M.n.x.k.b.g.f.g.z.s.7.6.6.7.7.s.i.9.7.7.7.7.6.6.9.u.g.s.u.f.a.7.7.%.8.",
"f.H.H.H.H.F.M.M.n.F.B.H.L.L.J.J.B.C.b.n.B.N.H.L.H.H.B.M.n.M.x.x.f.g.f.f.k.k.d.u.6.u.g.a.z.z.a.9.4.6.7.3.%.7.a.9.a.g.f.g.g.a.8.e.",
"u.N.H.b.N.N.N.b.F.N.N.F.H.B.N.B.M.n.M.C.V.H.J.B.B.N.M.b.M.M.x.f.f.a.k.m.M.b.m.a.6.8.a.u.s.s.9.3.4.8.s.7.7.s.N.d.s.N.x.g.g.g.a.Z.",
"0.k.b.g.b.m.N.F.H.H.N.b.f.n.B.N.f.f.x.M.M.J.F.n.H.B.M.b.x.k.g.s.f.M.b.b.M.b.f.3.1.:.3.u.9.9.4.<.4.7.s.7.s.A.M.x.g.N.b.i.3.3.3.3.",
"0.s.f.i.s.k.N.N.C.n.N.x.9.i.s.g.f.f.k.b.g.x.b.b.M.M.M.x.x.x.M.i.u.v.l.u.i.6.4.1.<.O.;.u.6.9.1.1.%.8.a.g.n.L.P.D.G.K.H.f.<.%.;.$.",
"0.f.s.9.i.s.f.9.s.s.g.x.4.<.;.:.:.:.1.4.9.H.H.g.k.M.m.x.s.x.x.g.f.p.5.0.6.2.<.:.O.} <.l.k.k.1.:.3.4.f.g.M.N.G.M.N.D.D.a.<.$.$.=.",
"w.0.7.a.x.C.i.4.9.9.6.4.$.@.o.@.@.@.@.:.7.4.7.t.s.m.x.M.D.M.x.x.v.S.j.6.;.O.o.{ { ` O.u.k.4.1.4.4.u.g.a.D.K.I.H.S.f.6.6.3.%.} ] ",
"q.,.,.8.0.4.8.7.6.;.@.;.@.O.O.@.;.:.o.@.@.4.<.3.<.6.;.$.;.:.1.<.:.;.;.O.o.o.} o.} } ;.1.2.O.;.;.:.3.3.3.f.S.D.D.d.<.@.$.:.@.o.@.",
",.q.q.| O.@.$.@.O.O.O.O.O.O.O.-.-.:.O.{ } @.o.} o.o.o.O.O.o.o.O.o.o.{ { O.O.| } } O.} } O.O.O.O.o.@.$.;.;.;.$.;.@.@.$.%.4.;.@.&.",
"w.-.| | | | -.@.O.} | O.} } O.O.O.@.} { } o.} o.O.O.O.} o.O.o.o.o.o.| } O.O.} O.O.O.O.} O.{ O.{ | O.| @.@.@.@.O.&.@.@.1.s.4.} &.",
"q.| | | | | { { } } | } } O.O.| O.| } { O.O.O.o.O.O.} } } | @.O.o.O.O.{ | O.O.O.O.O.O.O.O.O.O.} | o.o.| @.@.o.} } &.@.<.4.3.@.:.",
"| { | | | | | | O.O.| O.} | } } O.O.} } O.| } } O.O.} ] { } o.} o.O.@.O.O.O.O.O.O.} ( ( ` ` ` ` { } { ` { ` ] { ` } @.:.4.3.} { ",
"| | | | | | | | | | } | } } | O.| O.} | O.O.O.O.O.} { ` ` } @.%.o.o.+.*.*.$.O.;.;.} ( ` ` { { } @.} } ` } ] } ] ] o.$.0.6.4.$.:.",
"q.| -.-.-.;.1.O.| } O.O.O.O.O.-.O.} } o.:.O.$.O.O.O.} } } [ ( ..*.*.:.:.+. .o.O.:.O.O.o.} { } | @.| } { ` { } } } @.@.3.3.;.@.| ",
":.>.8.8.:.:.a.:.O.;.;.@.} $.<.4.<.$.@.;.u.O.-.} } } O.` ^ ( ( W R ^ ( _ / /  .+.{ | $.O.{ } O.O.} } } } } } | } ;.@.&.$.1.:.@.@.",
"-.@.-.@.-.-.4.@.O.;.@.O.O.<.;.;.4.@.$.O.<.O.$.O.} } | ^ G G U Y U H Z Z Z I W U ( } } } } } { } } } { } } } | &.:.$.| @.<.@.} @.",
"@.-.O.O.-.| -.@.@.@.$.@.-.@.;.<.2.@.:.o.:.$.O.$.O.O.O.^ l f f f s B B y M N B N ] <.} O.| O.O.} } @.o.} { ` { } o.o.o.@.@.o.o.o.",
"$.| @.O.O.O.@.$.| | @.O.} o.$.<.1.$.<.;.<.<.:.$.-.<.O.J v f 9 3 y f y l f B l l H O.@.6.o.O.<.| @.3.@.} { { { &.%.@.@.{ o.$.@.@.",
"| } | | 8.:.@.;.O.O.@.;.;.@.@.@.O.o.$.;.O.;.$.<.O.5.` k a a a a 9 0 0 f y y 7 a l ( -.t.<.u.p.$.<.2.$.[ } } | 1.<.| @.{ { @.@.:.",
"@.| | o.%.@.$.;.O.@.O.@.<.O.O.@.O.} O.O.O.} } O.O.$.( s 9 a 0 e y y 5 5 0 , e y y ( { O.$.4.t.:.4.<.d.@.#.:.{ { { { | { { ` ` { ",
"o.O.$.O.o.o.-.O.O.;.O.O.O.O.@.:.1.:.O.@.O.o.o.o.} o.` v i 9 9 7 7 4 5 - - 3 4 9 B ( ` ` { -.p.;.-.;.6.;.| O. .` { | | { { { ( ` ",
"` O.O.o.{ o.;.O.O.O.} @.o.O.t.1.;.O.o.O.o.o.o.+.@.@.} J s 3 7 9 3 3 - 4 = 4 9 9 Z ^ ` { `  .r.|  .| ;.-.1. .{  .` |  .` { | ` O.",
"o.1.@.1.O.@.O. .o.{ ` o.} { $.2.$.O.$.o.6.2.+.:.%.3.3.W s 8 4 4 = 4 = - , 4 9 k ` | `  .{ O.*. . .o.;.o.O. . .+.O.{ ` o. .` ( O.",
"*.o.$.2.+.O.*. .` { { { { o.+.2.*.o.4.+.r.r.5.+.2.<.:.^ s 7 3 3 - 4 = - = 3 3 l  .|  .O.| ;.;.o.o.o. .+.o.+.O.r.*. .-.*.O. .O. .",
" . .*. ._ *.+.) +.+._ +.+. .:.r.+.2.r. .y.S.+.r.d.r.<.] M 4 4 3 = 4 = = = = 3 l  ._  .*. .O.o._  .2. . .*. . .r.+.! +. . . ._ ! ",
"W /  .W ) +./ _ 2.) _ 2.)  .r.+./ h.r./ h.D. .h.S.m.h.2.M 9 4 4 = = # = = = 9 C O._ R 2. .!  ._ !  . .R +. .!  . .R  . .R  .! R ",
"W R R R W ! U _ / T )  .W  .+./ / 5.+.) p.y.) p.j.S.D.j.' u 3 4 4 # # , = 3 = C  . .R  . .U !  .R R ! R W R R R R R R T R ! R R ",
"T I R R U U R T L R ) T W  . .T  .+.W / =.X.~ y.j.j.S.S.5.d - # 4 9 4 4 = = , H R  .R H ! ! I R R R H R R H U U L L U R L R H H ",
"L G R G G R R L I ) T G W  .T T  .! P  .+.~ ! 2.h.S.K.S.y.z 4 * = = 4 = 3 , a U L ! / S S ^ H S L R I S R H S S L H G H S S G H ",
"L U G G U U S S R ! A L ] U S W +.T T +.y.!  .y.j.j.c.c.#.i 4 - * - , , 3 = s W G G / H S I ! S C L I C S H Z A S H A C S I S A ",
"U C V L T A A U ) A A W _ S S  . .A W +.+.P  .2.h.j.h.=.n 0 4 3 % = 3 = , 3 9 Z C A ! / S V S H V V L V V V C C V C V S V A C G ",
"n V C I n n G  .S n S ) I V W X.L A ! X. .F P T P m m g s q 3 7 # # 3 3 * 3 4 7 , , y E R V V ! H b V I V n V C S b n S V n n G ",
"v V R C z C W S x C U / V V  .+.m g h m c h g h c g t u u 9 7 9 = * a e = 3 4 4 : % , , M Z x S R V k b G V b V V x l x x V V n ",
"V I b z b R I z l I / A z G ) ! h t t t t 2 2 2 2 < < r 7 7 9 a 3 a f y 7 8 3 , , o % = % , 7 7 S R x k b R x j x C M x k V x k ",
"I Z z j G W b j v R S z z !  .R h < 2 2 > > > > > > > 7 4 4 0 a 7 a s a s e 3 o : o o % o % % % 7 U S j k V Z x j x v M j j x C ",
"b j y j I C j z I R z j C  .I z k t 2 > > > ; ; $ & & 3 3 4 0 a e s a a f y 3 + $ o o o o o % % % j ! C j j M C v s j x s j j j ",
"r j s C G k i C ~ L i b ' #.F p b n 1 > ; ; $ ; $ $ $ 1 - 5 5 0 a 0 a s 0 0 7 % @ o o . o . . o o 2 V I s i r l Z k r i i l i i ",
"s w M H x r u G W x u N ~ W b p C n $ ; $ $ $ $ $ $ $ w 0 5 4 0 9 0 f y 7 4 y 7 y . o . . . . . o , j L l s e j T M s e 7 k k v ",
"j l H s i e v U J p e H ' U p s P p $ $ $ $ $ $ + & 7 s q 4 5 4 9 0 a 0 4 5 5 a y . . . . . . . . , 8 j C B e w j M l i 6 r l d ",
"8 v b r w M E ^ n p M ' +.A w v W > $ + $ $ $ $ + : 0 4 - 5 - 4 4 3 y 9 4 5 4 , + . . . . . . . . 8 6 8 l J k w e i M 8 , 8 g y ",
"r i w e e C E G p u F &.y.b i D P ; $ X X + o $ $ 3 3 = # 4 - 4 = 3 9 5 9 , 4 * . . . .   .   . o z s , r V b r r 6 i 8 r j j l ",
"r , t r e l S s w u P ' ' p i E E ; $ X X $ $ $ & * = = - 3 - - = 5 4 0 9 4 4 = . .   .     . . % C V , i r g w < < < : , s ( 1.",
"j $ g , w w j s u d Q / P r b ~ A $ $ + X $ $ o o % , 7 7 5 4 4 0 0 4 0 , 5 , $ .     .       . o v Z e 8 2 , > & w & & j < C } ",
"r o r : w w w w u D / ~ k u b ~ A $ + + X X o $ + + 3 u 7 9 9 q 4 4 0 9 , 9 8 .       .   .     o w e 2 : 6 ; , + 8 & > w 6 w -.",
"1 O & : 1 8 2 8 8 s P D e e D / b $ $ $ o   o o o = 0 a 0 5 0 5 4 5 4 a 9 0 7 o               . O < < 1 ; < O & + > & < 1 & 1 U ",
"O 1 O @ O : 1 < w 2 w u e d Q [ x $ $ o X   o o $ 0 0 5 - 5 5 5 5 4 4 y 0 7 7 o               . + 1 1 $ $ + O + + @ 1 r 8 O & 1 ",
"+ q + 1 + O + : < w w w 9 b [ [ l $ $ $ X   r o @ 4 = = = 5 = 5 - 5 4 0 9 7 4 6 .     .       . + : + + O + O + + = - e 1 O & O ",
"4 B 4 f 9 < 4 1 1 3 w e e v [ $.k $ $ o o X Z $ * 7 = = = - = 4 5 5 0 4 9 4 3 4 ,     .     . . + & & * * & 1 8 1 - q : $ O $ @ ",
"/..XI.I./.XXOXoX/.N.n.x.g.M.I./.C $ $ $ o o ` o : 9 , = = 3 , = 9 4 5 4 4 4 , = , . . .     . o K [.XXOXOXOXXXI.j.3.) 1 u O $ # ",
"D.M.n.H.L.!.OXOXOX=XOXoXF.oXXX/.C & $ $ o o I $ , e 7 , , 7 0 3 4 9 0 - 4 9 , = = .   .       o H [.XX-X-X=X.XI.S.d.Q 1 s O = q ",
"j.M.N.L.H.L.P.[.OX;X>X>X:X:X-X[.x $ $ $ o X o o 3 7 7 , 4 0 0 3 4 0 s 0 9 9 7 , $ .   . .   . o ^ #X=X-X-X/.(.!.K.K.c.5.%.O l q ",
"D.H.H.L.H.J.P.(.|.#X-X>X:X>X-XoXC $ $ $ o X o 6 , 0 7 , 0 q 4 y a 9 d 7 a 3 3 7 o   . . .   o o { =X;X;X-XoXI.L.I.(.I.g.f.O D K "
};
