/* XPM */
static char *_4cfd768c2ac42ffc2795c532bbcba70cwcul4pCmDVBKfZl[] = {
/* columns rows colors chars-per-pixel */
"64 64 232 2 ",
"   c #010104",
".  c #02060B",
"X  c #03090D",
"o  c #040C13",
"O  c #090D14",
"+  c #020A19",
"@  c #04131B",
"#  c #0B151E",
"$  c #0B161B",
"%  c #11191E",
"&  c #031522",
"*  c #051A24",
"=  c #0A1B24",
"-  c #031D2A",
";  c #0A1E29",
":  c #091622",
">  c #111D23",
",  c #081834",
"<  c #05222D",
"1  c #0C222C",
"2  c #12232C",
"3  c #1B242B",
"4  c #042432",
"5  c #0A2532",
"6  c #0A2A35",
"7  c #042B3B",
"8  c #0B2D3C",
"9  c #042736",
"0  c #142431",
"q  c #112B34",
"w  c #132D3A",
"e  c #1B2E3A",
"r  c #182736",
"t  c #09303C",
"y  c #12313E",
"u  c #1B323C",
"i  c #21333D",
"p  c #092C45",
"a  c #053243",
"s  c #0B3343",
"d  c #0C3649",
"f  c #0D3B4C",
"g  c #0C3846",
"h  c #133443",
"j  c #1C3645",
"k  c #133B4C",
"l  c #1B3C4B",
"z  c #163847",
"x  c #0E3D52",
"c  c #113D50",
"v  c #1B3E51",
"b  c #14345C",
"n  c #132B4E",
"m  c #213C4B",
"M  c #253947",
"N  c #293E51",
"B  c #1B3E6E",
"V  c #19404D",
"C  c #0D4152",
"Z  c #144255",
"A  c #1B4254",
"S  c #15445A",
"D  c #1B455A",
"F  c #1B495C",
"G  c #15495D",
"H  c #284247",
"J  c #244454",
"K  c #234A5D",
"L  c #2C4C5D",
"P  c #2A4555",
"I  c #334C5D",
"U  c #344A59",
"Y  c #3A525F",
"T  c #30424F",
"R  c #1C4C63",
"E  c #174D61",
"W  c #1F546B",
"Q  c #234E63",
"!  c #2C4C62",
"~  c #334E65",
"^  c #245265",
"/  c #2B5264",
"(  c #24546B",
")  c #2B566B",
"_  c #2C5A6F",
"`  c #27586D",
"'  c #325365",
"]  c #3A5C6E",
"[  c #35576A",
"{  c #2C5C74",
"}  c #2B5E7A",
"|  c #255972",
" . c #335D72",
".. c #3C5E73",
"X. c #385C76",
"o. c #2D637D",
"O. c #326176",
"+. c #3C6276",
"@. c #34637B",
"#. c #3B657B",
"$. c #3C697D",
"%. c #435A6D",
"&. c #435E74",
"*. c #446373",
"=. c #446479",
"-. c #44697C",
";. c #4A697C",
":. c #556E7F",
">. c #1D5D8E",
",. c #2E6282",
"<. c #356681",
"1. c #356983",
"2. c #3C6B83",
"3. c #356B8B",
"4. c #3C6D89",
"5. c #396785",
"6. c #3D718D",
"7. c #3C7596",
"8. c #256292",
"9. c #326CAB",
"0. c #426D84",
"q. c #4B6E86",
"w. c #437086",
"e. c #4B7184",
"r. c #43738C",
"t. c #4B748B",
"y. c #4C798E",
"u. c #47798F",
"i. c #52758B",
"p. c #567688",
"a. c #447593",
"s. c #467994",
"d. c #4B7A95",
"f. c #457B9C",
"g. c #4C7D9A",
"h. c #4D7793",
"j. c #537C93",
"k. c #5A7D93",
"l. c #557E9A",
"z. c #536D84",
"x. c #637F92",
"c. c #497EA1",
"v. c #4D819C",
"b. c #548197",
"n. c #54829B",
"m. c #5B859D",
"M. c #5C879B",
"N. c #62869B",
"B. c #638799",
"V. c #4C81A2",
"C. c #5485A2",
"Z. c #5A86A3",
"A. c #5688A4",
"S. c #5B8AA4",
"D. c #548AAB",
"F. c #5C8EAB",
"G. c #5987A9",
"H. c #5E91B2",
"J. c #5E90AF",
"K. c #628DA4",
"L. c #628EAA",
"P. c #6A8DA6",
"I. c #6492AC",
"U. c #6B94AC",
"Y. c #6C98AF",
"T. c #6991A5",
"R. c #7294AC",
"E. c #7597AC",
"W. c #6494B2",
"Q. c #6996B3",
"!. c #6C99B4",
"~. c #6E9BBA",
"^. c #6698B9",
"/. c #749DB5",
"(. c #7B9DB4",
"). c #769FB9",
"_. c #789FB9",
"`. c #698FAA",
"'. c #76A0BA",
"]. c #7CA3BD",
"[. c #78A0B6",
"{. c #75A1C1",
"}. c #7DA6C1",
"|. c #7FA9C3",
" X c #7DA8C9",
".X c #4D8ED5",
"XX c #81A5BE",
"oX c #87A8BD",
"OX c #82A6C1",
"+X c #85AAC4",
"@X c #89ACC6",
"#X c #85ACCA",
"$X c #8CAEC9",
"%X c #80A7C9",
"&X c #90AFCB",
"*X c #90AEC4",
"=X c #8DB1CB",
"-X c #8EB1C7",
";X c #93B2CD",
":X c #9BB7CF",
">X c #97B7CC",
",X c #8CB2D1",
"<X c #95B5D1",
"1X c #99B7D2",
"2X c #9DBBD3",
"3X c #9BB9D5",
"4X c #9ABAD5",
"5X c #9DBAD5",
"6X c #9BBAD3",
"7X c #9DBDD9",
"8X c #96B9D3",
"9X c #A3BFD7",
"0X c #A1BDD5",
"qX c #A3BDD4",
"wX c #A3BFD8",
"eX c #A8BFD7",
"rX c #9EC2D7",
"tX c #A5C0D7",
"yX c #A5C1D9",
"uX c #A6C1D9",
"iX c #A9C3DA",
"pX c #AAC4DB",
"aX c #ABC4DB",
"sX c #AEC8DF",
"dX c #B0C7DE",
"fX c #B2C8DF",
"gX c #AFC9E0",
"hX c #A9C7E2",
"jX c #B0C7E0",
"kX c #B3CAE1",
"lX c #B8CCE4",
"zX c #B6D0E6",
/* pixels */
"<X1X1X1X1X3X3X3X2X1X2X1X1X2X3X3X3X3X3X0X3X1X&X5X3X0X<X%X~.^.^.^. X#X#X<X5X1X1X1X1X3X2X3X3XqXqX2XtX0XtXtXyXtX7XyXtXyXiXyXhXpXiXhX",
"1X1X1X3X3X1X3X3X2X3X3X1X3X3X3X3X2X2X0X9X0X3X,X<XqX<X~.J.^.^.H.H.~. X X,X<XwXiX3X1X6X3X2X6X2X2X0X0X0XtX0X0X0XtXtXyXyXyXyXwXpXiXiX",
"1X3X3X3X3X0X3X3X3X3X3X3X3X3X3X3X3X7X0X0X3X<X}.#X;XG.D.H.^.H.^.H.^.{. X#X,X4X5X4X1X3X3X2X2X2X0X0X7XtXtX0X0XtXtXyXyXyXyXiXiXiXpXpX",
"1X1X3X3X3X3X3X3X3X3X3X3X3X3X3X3X0XyX0X2X3X<XW.{.H.c.7.c.D.D.D.H. X,X,X#X,X,X4X4X6X2XtX7X2X0X0X0X0XtX0XtXtX0XtX0XyXyXyXiXiXpXpXpX",
"1X3X1X3X3X3X3X3X5X5X5X0X3X3X3X9XtX0X7X6X3X<XF.V.c.c.c.7.7.D.c.D.~.{.%X#X,X,X<X<X<X<X7XiX2XqX2XtXtX0X9XtX9X9XtXeXiXwXpXpXpXpXpXpX",
"<X<X<X<X1X<X;X;X<X<X1X1X3X2X7XeXtX2X2X6XiX#XV.!.f.f.c.c.3.D.H.c.c.H.}.#X}.#X<X,X<X,X+X6XrX2XtX2X0XtXtXtXtX9X9X9XwXiXpXaXpXpXaXaX",
"$X$X&X&X&X&X$X$X&X&X&X;X:X3X0X0X2X1X1X=X4XL.V.#Xf.c.4.6.c.~.W.3.H.W.~.{.{.{.7XhX4X8XOXOX7X9XtXtXyXtXiXtX9X9XyXiXiXpXiXaXjXeXaXaX",
"@X$X$X$X&X$X@X$X,X$X$X;X1X0X3X1X<X<X1X+XOXg.C.OXg.c.,.,.3.W.W.3.J.~.W.W.{.}.#X<X3XrX=X+XyXtXtXtXyXiXiXiXiXiXiXiXiXpXpXjXjXjXaXaX",
"@X@X$X$X$X$X$X$X$X$X$X<X1X3X;X<X<X:X1X_.!.c.n.].A.7.,.1.o.F.F.,.a.W.l.~. XOX#XOX#X7X1X].6XyXqXqXeXyXiXiXpXeXpXeXpXpXpXpXjXsXaXaX",
"@X$X+X$X$X$X$X@X$X;X&X&X<X&X;X;X1X<X0X/.a.a.h.'.V.o.| o.o.F.C.5.3._.F.~.'.%X{.!.$X1X<X<XtXtXqXtXyXyXyXiXeXeXpXpXpXpXpXsXjXhXaXsX",
"@X@X@X$X@X$X;X@X$X=X<X<X;X;X;X:X;X<X3XU. .} @.R.L.o.o.o.G d.a.3.5.+XL.g.F.^.F.W.+X=X=X3XpXrXeXeXyXiXeXiXpXpXaXaXpXaXjXjXjXjXjXjX",
"$X@X$X$X$X$X;X$X$X$X<X&X;X;X&X<X<X&X<XG.D D Q Z.).<.<.o.d <.3.( ,.!.F.G.!.F.a.I.|.$X<X6X2X2XqXeXiXiXpXpXpXpXpXpXaXaXaXjXjXkXkXkX",
"$X$X$X&X$X@X&X&X$X&X;X&X&X&X&X;X;X;X<Xl.x a A 0.~.a.4.6.( g.4.} } S.A.F./.~.s.K.}.}.=X6X@X:XeXiXiXiXpXpXpXaXaXpXaXaXaXsXkXkXkXkX",
"$X&X$X<X$X$X&X$X$X&X&X&X&X&X&X&X<X&X<X0.D l g  .J.f.3.W.5.C.F.a.4.g.n.I.I.G.g.I./.'.OX1X].6XiXtXyXpXpXpXaXaXaXjXjXaXaXaXgXjXjXjX",
"@X<X$X<X$X@X&X,X$X<X;X&X$X&X&X&X$X&X;X#.Z A A ^ r.6.( Q.C.} A.h.a.h.s.d.S.g.n.h.l.I.}.7X].8XiXiXiXiXpXiXpXpXpXsXjXjXsXsXsXsXsXsX",
"@X$X$X&X$X$X;X$X$X$X&X&X&X&X&X&X$X<X$X0.c A Q F @.4.G j.).E @.4.r.a.a.6.5.n.S.@.} v.+X<X=X8XiXtXtXiXiXiXpXpXpXsXgXjXjXaXsXsXsXsX",
"$X,X@X&X$X$X;X$X&X$X&X$X&X&X&X&X&X;X@XX.b F Z d Z @.x ) ).g.v.s.w.1.s.Z.g.L.I.n.#.n.+X$X<X<XiXtXiXiXiXiXpXaXpXsXsXjXkXkXkXjXjXjX",
"$X&X$X$X@X$X&X$X@X$X$X$X$X$X@X&X&X&XOX) Z s 8 t g | ^ 8 S.W.v.F.d.C.F.W.C.C.A.Z.4.Y.{.=X<X:XtXiXtXiXiXpXpXaXpXsXsXsXjXkXlXjXkXkX",
"$X=X$X@X@X$X;X$XOX@XOX@X@X@X@X$X&X;XOX( f 9 4 s D g x 4 X.I.r.1.<.4.s.g.s.4.n.| 4.].!.+X;X6XiXtXtXiXpXpXaXsXsXsXsXjXgXkXlXjXlXlX",
"$X;X$X$X$X$X$X+X@XOXOX@X+X@X$X$X@X;X(.Q k - - F ^ p R ` D Z.F.h.g.4.<.r.C.L.Q.u.L.].n./.+X;XyXtXiXiXpXaXaXaXaXsXaXjXjXjXjXlXlXkX",
"$X$X$X$X$X@X@XOX+XOXOXOX+X+X@X@X@X<X/.Q S 4 * Z ( R c 2.` 2.I.G.F.J.F.g.!.Q.A.G.].!.u./.=X;XpXtXiXiXpXaXsXaXsXsXhXjXlXkXlXkXkXkX",
"$X$X@X+XOXOXOXOX$XOXOXOXOXOX+X@X@X;X_.R x 7 4 c x R a ` F.6.s.s.s.F.C.A.S.c.6.I.'.S.n./.-X8XpXpXiXiXiXaXaXsXgXgXkXgXjXkXlXkXkXlX",
"@X$X@XOXOXXXXXXX+X+XOXOXXXOXOXOX$X&XXXF D c 4 p <.6.| E 4.S.4.n.j.g.C.g.a.!.g./.U.n.#XOX#X:XpXiXiXpXpXaXsXsXsXjXkXkXkXkXkXkXzXkX",
"@X$X+XOXOXXX].].+X+XOX_._.}.OXOX).+X].{ E D 9 k R x X.1.R j.A.r.S.1.F.4.C.S.A.!.Y.K.:X7XOX8XiXtXiXaXpXaXaXsXsXjXkXkXkXkXlXzXkXlX",
"$X+XXXOXOX].XXOXOXOXOX_.].].OX+Xh.a.a.o.| d 9 g X.F x { 1.^ F.n.S.r.4.@.u.1.I.T.Y.b.XX].#X2XyXpXuXpXpXpXsXsXgXkXlXkXlXkXkXlXlXkX",
"@XOX_.OXXX}.OX].XXOXOXOXOXOX+X&XX.k W G <.Z 7 s R g a a ^ ( ^ j.n.K.{ Q <.t.J./.b.d.#X>X;X>XtXtXtXpXpXpXsXsXgXgXkXjXjXlXkXkXkXkX",
"OX}.XXOXXX_.XX].XXOXXXXXOXOXOX@Xw.8 7 p <.{ 7 < 4 & 4 4 5 v t V  .t.r._ O._ w.Y.@.T.=XhX-XK.8X:XtXuXuXpXsXsXsXsXjXjXlXjXlXhXkXkX",
"XX].}.OXOX].}.].XXOXXX_.].OX].OXw.* X * ` { a * . . o @ + = t 6 6 A 1.$.j g Q _ K e.j./.4XI.U.7XiXiXpXpXaXaXgXgXjXkXkXkXkXzXgXkX",
"XXXX].OXOXOXXXOXOXOXXX]._.+XOX@Xk.4 O . h ( C 9 o .   B 9.,   = $ / w.$.u @ h b n & h 0.2X] ;.iXtXiXiXiXaXsXgXsXgXkXkXkXkXkXzXgX",
"OXXX_.XX_.OXXXXXOXOXXXXXXX@X$X@XU.h *   @ W S d & X . n 9.p X   X s $.-.1   n .X9.@ h j.oX] B.pXiXiXiXiXaXaXgXsXgXkXkXkXkXkXzXgX",
"OXXX].].OXOXOXXXOXOXXXOXOX@X@XOX].! * . o Z c Z 8 @ o o * 5 q * < ^ M.Y.L & 5 8.>.K F Y.oXP T.fXiXiXiXaXsXsXgXgXgXkXkXlXkXkXkXkX",
"OXXXOXOXOXOXOXOXOXOXOX%X%XOXXXXX+X..; o * s G Q F 4 @ o * 1 5 s x $.|.>Xj.j # 4 J M.+.T.-XU oXaXiXpXpXaXsXjXjXkXjXkXkXkXkXkXgXzX",
"OXOXOXOXOXOX].].OXOXOXOXOXOX].).+XM.< . @ 8 E O.O.k t < 5 y 9 d { @.'.OX].+.w 1 H b.M.[.oXp.aXaXaXaXaXdXjXdXkXkXkXkXkXkXkXkXlXlX",
"OXOX@XOXOXOX].].].].XX].OXOX].).OX[.k * : 9 G { v.O./ Q D k a 9 ` <.T.-X;XB...' +.T.K.].XXE.fXaXaXaXaXaXdXaXjXjXdXkXkXkXkXkXkXkX",
"+X+X+XOXXXXX].)._.).'.).}.OX'.].OX@X .` v 4 D ^ m.6._ ^ Z g f 7 W f.Y.:X].K.t.b.I.Y.m.=XoXoXfXaXiXiXiXaXpXsXjXjXdXkXkXkXkXkXkXkX",
"OXOX+XOX].].].].]._.).).}.OX].].XX=Xq.4 j d C _ O.n.F C f f Z a <.W.XXtXoXM.b.-.n.M.].yXoXoXfXaXaXaXaXeXsXsXsXdXjXjXkXkXfXkXkXzX",
"XXOXOX}.].].].'.).].).].OXOX].].OX@X/.w - s 7 _ ( ` @.G Z C Z ( v.!.oXpXsXF.b.2.$.u.(.pXoXiXiXiXaXiXeXdXsXsXaXdXfXfXfXfXfXkXkXkX",
"OXOXOX].].].].'.).)._.OX@X+X].].+XOX=X=.X 6 t 8 ^ S O.` x G 7 ` D.~.oXaXrXM.b.w.w.n.].6X:XaXtXiXaXaXdXaXdXsXsXsXfXkXfXfXkXkXkXkX",
"OXOXOX].'.).)._.]./.)._.OXOX].].OX+X+XOXN < f 4 1 t V ^ S S f C v.Q.].rX>Xb.M.n.$.M.oX*X2XiXtXtXiXaXaXdXaXdXaXjXfXfXfXzXsXsXzXsX",
"].}.}.].].).].).).).).).XX].].[.OX+XOX+X$X#.a 5 7 t 5 f Z a x 7 W W.'.-XtXY.v.M.O.M.[.(.:XtXeXiXiXiXaXaXaXaXdXjXfXkXfXfXzXzXsXzX",
"].].].]._._.].).[./././.].].'./.OX+XOXXX&Xq.a 8 4 p h 7 k p < & F M.'.=X-XI.$.6.b.M.b.oXtXeXeXiXaXeXaXaXdXaXsXfXkXfXfXfXlXzXfXzX",
"].XX}.].]./.).].[./././.|.].!./.}.+X@XOX,X..7 S & 4 k c d c * . q 6.W.Y.O.b.$.b.Y.b.b.8XtXqXqXtXeXaXaXaXaXaXdXkXkXfXlXfXfXfXfXfX",
"_.].].]._./._.{.[.!.!./.].].!./._.+X#XOX=X..9 S 5 4 a E C C 8 @ X K v._ b.T.b.[.Y.b.Y.2XqXqXtXtXiXiXaXiXaXaXsXfXfXfXfXfXfXkXkXkX",
")._._._._.].]._././.'./.].'.[.'.].+X@XOX<X0.- S s - a C x C Z 4 $ * ^ e.T.[.Y.].T.F.[.tXqXqXqXqX9XeXaXiXaXaXdXfXfXfXfXfXfXfXzXkX",
"_./.'.'.'.'.'./.[.[.'.[.]./.'.].OX#XOXOX=Xl.< s k 7 9 Z F R G s y t V b.[.].oXY.Y.T.oXiXtXpXtXqXqXeXiXsXaXaXfXaXfXfXfXfXfXfXkXlX",
"].]./.'././././.'.].'./.].].].].OX+XOXOX@X/.t 5 8 s a x Z S ^ K ^ F / K.].oX].].[.[.oXtXtXpXtXtXqXeXeXsXsXsXaXsXfXfXfXfXfXfXfXfX",
")./././.!./.'.'.].].'.[.|.].OX}.XX}.].OX+X@XQ 7 4 c S Z Z D V Q $.e.b.E.rX].T.].Y./.rXtXtXtXtXiXeXiXiXiXsXaXaXsXfXfXfXfXaXfXfXfX",
"].]./././.].}.].|.|.'.].].|.OX].].].OX+X+X;XB.d t f ^ D 6 5 * < z $./ b.Y.$.:.].Y.].rX:X:XtXqXtXiXiXiXpXsXaXfXsXsXsXfXfXfXaXsXfX",
"OX}.].].].|.+XOXOXOX|.'.].].|.].].].].#X@X$XXXA d 7 l Z 1 . X $ 1 q q y j 1 H ].XX*X2X2XqX:XqXeXiXiXiXiXaXaXfXfXfXfXfXfXfXdXdXaX",
"+X+X}.}.].OX+X#X#X+X].].].'.].|.].].OXOXoX$X(.w g 7 8 m V q y L ] -. .-.E.p.' [.oX:XqXqXqXqXqXqX9XiXiXiXpXaXfXfXlXlXfXfXdXaXsXsX",
"#XOXOX+X+X+X+X@X@X+X].].].].].].).].].OXXX#XE.= g k k J I z z / -.b.w.K.oXT.B.oX-XrXeX2XqXqXqXqXqXeXiXaXfXfXfXfXlXfXfXfXfXaXaXsX",
"OX+X+X+X+X#X@X@X$XOXXXXX].].'.'.).].]./.].OXXX> 6 ^ A J / J 6 t j F ' t.p.b.(.>X>X2XeX:X:X:X:XqX2XeXpXdXaXfXfXfXdXpXfXpXpXdXpXpX",
"-X#X@X+X@X#X@X+X@X+XOX+X|.].].].].].].].XXOXR.; 1 K / K l l 1 o @ < z ] B.b.[.>XE.:.qX2X:X2X:X2X2XeXiXpXpXaXaXiXpXfXaXfXpXaXaXaX",
"+X@X@X+X+XoX#X|.].].XX#X#X].].].|.OXOXXX].#X] o @ 6 k K D 1 * l L -.B.;.-.B.E.XX%.I Y :X2X2XqX9XtX2XqXeXtXiXtXtXtXtXtXaXaXaXsXaX",
"@X@X+X+X+X].+XOX].|.].OXOXOXOXOX}.OX].'.+Xe.& X . X 5 < A l z O.-.M.>XrXM.T.oX*.T ' %.%.*X:XR.=.oXtXuXiXqX2XeXeXtXtXtXaXfXaXaXfX",
"+XOX+X+X+X+X+X+X|.].|.].|.OXOXOX}.].@X-Xt.@ o . O   @ * g / K $.b.T.(.rXrXtX(.I U -.6.r.#./ J j L *.e.oX2XpXeXtXtXqXtXpXpXaXpXpX",
"+X+X+X@XOX|.OXOX].].].+X].|.XX+X;.J :.-.5 1 o o = O   o t F _ u.b.b.oXpXrXoX;.] L ; r M ) A 5 i.! : N ! =.N.&X&X:XpXiXiXiXaXiXiX",
"oX+X+X+XOX|.|.].|.].].+X#X[.] b.e = - @ = o @ # X :   . @ V $.Y.O.E [.zXrXb.H ] j.v 1 &  .[ N 0.! ..F.e > t.X.[ T.E.oXpXkXaXtXtX",
"+X#X+X+XOX+XOX|.].XX|.M.T.*.1 < 2 > h ; o < 1 . X O $ $   $ L A.$.$.[.rXT.U U U 0.K ! E ,.h.).c.~ l.g.#.P.k.0 i.:.2 ;.P.x.>XpXaX",
"+X+X@X+X#X+XOX|.].'.Y.J w q X $ 5 % 0 c 6 ; o = $ o X % $   2 / / $.T.B.L 2 *.z Q K a x ' ' {.q.! L.g.L.,Xq.k.#X*.Y @X' ;.B.T P.",
"+X+X@X@X-X=X-X#Xt.! ! $ 1 8 O : - : i d * o : # # o   X $ O   O % u e.i Y o H A Q K D ( = > h.[ T 0.I &.%XR.R.l.r &.x.&.OX! [ R.",
"+X@X@X=X;X+Xj.K.M M x 2 q Z = > v m 2 h 9 8 * @ o O $ . X O   > @ . :.-.u q > K Q #.X.z e q.q.N I h.;.P.i.%.).P.k.h.m z.t.] ).W.",
"@X-X=X'.].t.M F h r k v j k j M v j I l 9 8 6 ; # = o . X   X u H u H $.P V V A 9 P j.P 0 m ~ p.(.q.M ~ h.P.`.[ X.0.j Z.&.U 5.| ",
"@XOX|.*.^ ^ 3 L y r  .k 0 ' ~ ; ( j % q w $ u 8 * & # 2 X 3 H q H *.*.H u 6 < 6 1 y h : r K ~ r q.R.$X(.~ M h.q.L.0.j 0.l.@XZ.} "
};
