/* XPM */
static char *b7b2181f95b2498ebcc2f79ad18e505bVhVaSWQ1EMijrkFv[] = {
/* columns rows colors chars-per-pixel */
"64 64 247 2 ",
"   c #0F0804",
".  c #140B05",
"X  c #1A0E06",
"o  c #160E09",
"O  c #1A0F08",
"+  c #1C120B",
"@  c #1B1009",
"#  c #1F1711",
"$  c #23150C",
"%  c #25180E",
"&  c #2B1A0D",
"*  c #28160A",
"=  c #331D0C",
"-  c #3C1E09",
";  c #241A12",
":  c #2A1D13",
">  c #211710",
",  c #331F11",
"<  c #36200E",
"1  c #3B220D",
"2  c #2D2115",
"3  c #2D2219",
"4  c #332214",
"5  c #33261B",
"6  c #3A2A1C",
"7  c #3A2818",
"8  c #362E24",
"9  c #3A2E23",
"0  c #3A3126",
"q  c #3C342A",
"w  c #3F382D",
"e  c #43240B",
"r  c #4C270C",
"t  c #5B2E0C",
"y  c #542B0C",
"u  c #5C320E",
"i  c #442B14",
"p  c #422D1A",
"a  c #4A2B12",
"s  c #552D14",
"d  c #46311B",
"f  c #4B341B",
"g  c #5C3313",
"h  c #55381A",
"j  c #652D08",
"k  c #64320D",
"l  c #6B340C",
"z  c #6B390E",
"x  c #743A0E",
"c  c #793B0D",
"v  c #643512",
"b  c #6B3B13",
"n  c #683A16",
"m  c #733D12",
"M  c #793E10",
"N  c #602F12",
"B  c #423225",
"V  c #42352B",
"C  c #42392E",
"Z  c #4B3928",
"A  c #533C23",
"S  c #453D33",
"D  c #493E34",
"F  c #432F21",
"G  c #613D21",
"H  c #401E0C",
"J  c #5F411F",
"K  c #7D420E",
"L  c #69421D",
"P  c #764214",
"I  c #7B4413",
"U  c #78471A",
"Y  c #5B4327",
"T  c #4A4136",
"R  c #4C443A",
"E  c #4A4338",
"W  c #51473D",
"Q  c #51493E",
"!  c #5A4837",
"~  c #664A28",
"^  c #794C25",
"/  c #7B522A",
"(  c #6C5436",
")  c #775736",
"_  c #654E35",
"`  c #7B613E",
"'  c #554C42",
"]  c #594E43",
"[  c #5B5245",
"{  c #5D544A",
"}  c #575046",
"|  c #635445",
" . c #61564C",
".. c #63594D",
"X. c #6C5C4B",
"o. c #6B5745",
"O. c #755D45",
"+. c #655C52",
"@. c #685E53",
"#. c #685F58",
"$. c #7A6349",
"%. c #6A6155",
"&. c #6D645A",
"*. c #736454",
"=. c #70665A",
"-. c #736A5D",
";. c #7B6A57",
":. c #6F604E",
">. c #756C62",
",. c #776C63",
"<. c #7C746B",
"1. c #7B7164",
"2. c #7F7772",
"3. c #813F0A",
"4. c #84440D",
"5. c #8A480D",
"6. c #914C0E",
"7. c #98530F",
"8. c #824513",
"9. c #844A15",
"0. c #8B4D14",
"q. c #844C1A",
"w. c #884D19",
"e. c #934E14",
"r. c #8D5015",
"t. c #8C531B",
"y. c #83511E",
"u. c #935214",
"i. c #9A5514",
"p. c #9C5A15",
"a. c #92551B",
"s. c #9B5C1C",
"d. c #955A1C",
"f. c #A35B14",
"g. c #A45D19",
"h. c #AC5D0D",
"j. c #9E601D",
"k. c #AA651C",
"l. c #AB6A1D",
"z. c #A76218",
"x. c #B36A19",
"c. c #B9731B",
"v. c #824E22",
"b. c #855223",
"n. c #895728",
"m. c #955C25",
"M. c #875C36",
"N. c #9C6224",
"B. c #98622B",
"V. c #88623B",
"C. c #946435",
"Z. c #9B6C3B",
"A. c #976838",
"S. c #9F723B",
"D. c #A46422",
"F. c #AC6B23",
"G. c #A76927",
"H. c #B16E25",
"J. c #B47223",
"K. c #B37329",
"L. c #BC7926",
"P. c #A36C33",
"I. c #A97639",
"U. c #B57B36",
"Y. c #AC712C",
"T. c #C27D24",
"R. c #C17B27",
"E. c #C27F30",
"W. c #C17B1E",
"Q. c #886848",
"!. c #966C44",
"~. c #997349",
"^. c #856D58",
"/. c #8D7353",
"(. c #8B7558",
"). c #957957",
"_. c #8A724D",
"`. c #A47747",
"'. c #A37C53",
"]. c #A16F40",
"[. c #81776C",
"{. c #82796E",
"}. c #8C7E6D",
"|. c #887765",
" X c #927D65",
".X c #857C73",
"XX c #887E75",
"oX c #835E40",
"OX c #BA823C",
"+X c #BF812E",
"@X c #C7862B",
"#X c #CB8D33",
"$X c #C58935",
"%X c #CD923C",
"&X c #D59B3C",
"*X c #D49738",
"=X c #D1902E",
"-X c #B88646",
";X c #A88459",
":X c #BB915A",
">X c #BF8F51",
",X c #95826B",
"<X c #8C8175",
"1X c #8C847B",
"2X c #898279",
"3X c #938474",
"4X c #91867B",
"5X c #95897C",
"6X c #9A8C7C",
"7X c #9B8973",
"8X c #B59469",
"9X c #B79A74",
"0X c #AC9373",
"qX c #BFA47F",
"wX c #CD9743",
"eX c #D49C43",
"rX c #D49C45",
"tX c #C9974F",
"yX c #DBA345",
"uX c #D9A44B",
"iX c #DBA648",
"pX c #DBAA57",
"aX c #DFB15C",
"sX c #E2AF4E",
"dX c #C4A579",
"fX c #DBAF66",
"gX c #E4B868",
"hX c #E1B974",
"jX c #C19862",
"kX c #E9C177",
"lX c #938B83",
"zX c #968F88",
"xX c #9A8F83",
"cX c #9B938C",
"vX c #9B9186",
"bX c #9E9792",
"nX c #8E8780",
"mX c #A49688",
"MX c #A39C95",
"NX c #B19E85",
"BX c #A7A19C",
"VX c #B3A189",
"CX c #ACA7A3",
"ZX c #B3AEAA",
"AX c #C5AB89",
"SX c #CBB18B",
"DX c #F1D090",
/* pixels */
".Xo . . . . . X X . . . . . . X . . .   .     . X * X 5 #.{ } } ' ' ' ' ' ' } { #.{ { #.' ' } { } ' ' ' ' } } } } { { { { { { } ",
"ZX' . X o o o . . . . X X . . X X . . .       X + * * V ,.#.,.#.#.} ' ' } } { { { { { { ' ' ' ' } ' ' ' ' ' R ' ' } } } ' ' ' R ",
"cX,.&...q ; + # X . o X . . . X X X . . .   . * X * X D #.{ 2.,.,.#.} } } { { #.#.} { #.' ' ' ' ' ' R ' ' R ' R R R } ' R R R R ",
"CXCXMXcXbXzX2.>.#.S > X X . X . . . . . . . X @ * * X ] >.#.#.2.>.#.{ } { { { { { { } { } } ' ' ' R ' R ' R R ' R } R R R R R S ",
"bXnXzXzXcXcXnXXXnXbXzX+.5 O O X X o . . . . . X $ X # ' #.#.#.>.#.#.#.#.{ { #.{ { { { { } } ' Q R R R R ' R R R ' R R R R S S S ",
"XX<.>.,.2.2..X.XnXnXcXbX{.D ; O X . . . . . . X X * * D  . . .+.#.#.#.{ #.{ { { { { { } } ' ' Q R R R R R R R R R R R S R S S S ",
">.%.%.%.&.-.<.<.2.2.2X2X[.,.' ; o .   .     . X * * * D ' ] { { #.} { { { } } } } { } } } ' Q R R R R R R R R S S R R R R S S S ",
"%.@.@.+.%.%.&.&.&.,.<.,.,.=.#.D X .       . . . X * * B 9 F Z ] R D ' ' ' } } } } ' } } ' Q R R R R R S S R S R S S S S R S S S ",
",.&.#.#.@.+.#.#.#.#.&.&.&.#.#. .3 .   . . . X X X $ * 4 5 3 2 < 3 , F D ] ' ' ] ' ' W ' W W R R S S R S S R R S S S S S S S S S ",
"XX{.,.=.#.+.+.+.#.#. .] | W ] ] q .   . O O X X @ X * 2 5 2 2 2 3 # > , Z W ' ' ' W W W R R R S R R S R R R S S S S S S S q S S ",
"D *.' { X.] ' D 0 V 5 V X.#.=.] 5 X . o O O + X X . $ 5 6 4 2 2 : : ; > & Z W ' ' R R R R R R R R S R S S R S S S S q q q q q q ",
"O X O X > O o + # 5 F ' ! { ^. .> + @ @ . . o X . . + & & & = < , , , , > 3 B W R R D R R R R R R R R R R S R q q q 8 q q q q q ",
"> ; > > # ; ; : 5 3 V Z D D Z , + X @ o . o o o . o + ; 7 7 f w D V 5 , 3 3 3 F R R D D R R R W R R R R R R S S q q q q q 8 q q ",
": * * * F V 9 8 9 V 3 3 : * * $ @ . o X o o o + X @ + : 0 T T T D D D q H , F G W D D D R R R W ' R R R R R R S S q 8 q 8 q 8 q ",
"[.o.Z F 3 ; > > > > > > & * * $ $ + $ + + + + o + @ + : 6 T T E S S D D C 6 F G D D D D R R W W R R R R R S S S S q q 8 8 8 8 q ",
"{ D V V : # o O O # $ + * * * * & & * * $ + @ o @ + $ 5 T E w w S D D D D D F ) M.D ! W R W W W R R R R S S S q S q q q 8 8 8 8 ",
"&.] Z 5 ; : D ' 8 + X . X * = B T 6 = & & + + + + % : w E E E E D E D E W D D _ A.V.! ' Q Q ' Q R R R R S S S C q q q 8 8 8 8 8 ",
"] Z , * 9 ..,.,.>.Q $ X + 4 Q +...{ Q T 6 5 $ & 5 d S E E Q E E E R E E R D ! | M.I.!._ ] ] Q ] } } R R R R S C C q q 8 8 8 8 8 ",
": : * 9 [.{.[.[.>.1.%.E ..-.=.&.:...[ [ [ [ Q Q Q E E E Q Q Q Q R R R W W ' ] o.V.P.OX!.o._ !  .#.} } ' W W D D S S C q q 8 8 8 ",
"MXnX=.zXzXlX6XXX<X<X{.<.<.1.<.<.>.&.+...{ { [ [ Q Q Q Q Q Q Q Q W R R W R ' ] X.$.Z.U.OX!.| ] { { #.} } ] } ] W W R S S q q 8 8 ",
"MXbXxXXXXXXXXX6X3X<X,X<.<.<.<.<.{.{.>.&...{ { [ } Q Q Q Q Q Q Q Q Q R Q W ' | O.O.Q.A.I.U.O.O.| #.#. . .#. . . .+.{ } D C q q 8 ",
"MXbXlXXX.X}.}.lX4X<X<X|.<X2.<X2..X2X2X{.-.+.....[ [ [ Q [ } [ } ' } ' Q W ' ] | X.^.^.`.$XI.!.X.#.#.#.#.#.#.#.| } } ' R C q q q ",
"bXMXvXXX}.}.xXmXxX5X5X7X,X<X<X<X.X1XlX1X{.&.....[ ..[ } } [ [ [ Q [ ' Q ' ' ] | #.oX^.`.$XwX`.!.{ o.#.^.,.=.#.#.{ } ' S w q q 8 ",
"xXxXxXxX6X}.xXxXvX6X6X6X7X<X4X2X2XbXBXMXzX<.-.%.....[ [ } [ [ [  .{ { { ] ] ]  . .X.*.).`.%XaX-X#.#.o.#.#.#.#. .+. .} W R S w q ",
" X X3X6XmX6XmXvX6X6X6X6X6X4X6XzXlXBXCXBXbX2X<.-.%.+...{ [ [ ..[ .. .{ { { { [ ....X.*.^.~.U.rXrXOX;X:...:.......{  .{ ] Q E T C ",
"). X). X7X7XmXvX6X5X6X5X4X4X5XzXzXBXBXbXbXzX2X1.&.%.%.+.+.............%.@...........X.$.^.~.`.$XwXOX` :.` ..[ ..{ { { { Q Q R E ",
").).).).,X,X6XvXvXvXvX5X1X1X1X1X1XlXbXbXcXlX2X<.-.&.%.+.+.+.+.+.....%.%.%.%.@.....X.X.O.O.Q.].U.&XwXOX:.....| [ { { { ] Q Q W R ",
"/._.Q.~ M./.7XvXmXbXBXcX1X2X2X<X.X2X1XzXzXzXlX{.>.&.%.+.......@.%.%.%.%.&.=.=.%.%.@...o.O.M.V.P.+XOXOX-X` ....[ ] [ ] ] [ Q ! W ",
"Q._.~ b L V./.,X6XvXbXzX1X2X2.<.2..X4XzXzXzXzXlX2X<.>.&.+.......@.@.@.%.%.&.=.-.=.*.%.X.O.M.V.C.+X+X+XpX;Xo.........[ [ [ Q Q Q ",
") $.~ L v L V._.,X6X6X1X2X2X2.<.2.2X4X4XlXzXlXzXcXzX4X.X>.%.+.+.@.%.%.%.%.%.&.&.&.*.*.O.O.) ) C.C.+XOXiX&X;X$.*.:.:.@.+...{ ..X.",
") ) h k k j 9.M.B._.,X(.2X<X<X2X.X<X<X<X1XnX1X2X4X4XbXMXMXcXzX1X.X<.-.=.&.&.&.*.&.*.X.O.( / / n.m.D.+XiXpXOX;X$.*.*.%.%.%.%.@...",
") ) g j t j 4.8.9.9.V.,X<X<X1X2X1.V.,X<X2X2X2X2X2X2X1XzXbXZXCXMXbX4X1.1.-.-.-.=.;.:.O.O.) / U / d.d.c.+X&XwXOX;.;.*.*.=.-.-.=.%.",
"~ ~ N j j j 3.5.e.v.!.xXXX5XlXXX(./ (.XX2XXX.X2X2X.X.XXXlXBXCXBXbXvX1X<.1.-.;.*.*.O.O.) ^ G v.v.e.i.x.E.=X*XyXtX`.^.=.-.,.,.,.&.",
"~ G s N c 4.5.4.4.v.~. X7XxXlXXX}.b.Q. X1XXXnX2X.X.X<.2.XX1XvX5X<X2X5X1X1.;.;.;.$.O.O.M.) n.v.w.e.f.x.T.yXsXuXaXOX^.^.^.,.,.,.,.",
"G N s N 3.8.e.e.n.C.oXQ.Q. XxXxX XC.M.).}.|.1X2X2X.X2XXX.X<.<.{.@.8 1.(.^.;.$.$.O.o.) oX) v.v.a.e.f.h.x.T.yXyXyXrX`.'.^.,.,.=.,.",
"G s g l 8.3.4.i.N.n.v.v.M.!. X X).!.M.M.oX_.1XnXnXzXlX1X<X.X{.{.*.( ;.;.Q.^.^.V.M.oXM G G w.a.w.e.g.k.k.W.*X*XyXuXwX`.).^.;.-.,.",
"G N N l 0.w.c 3.e.w.8.M v.M.Q.).).!.n.M.v.b.|.>.lXMXBXcX5X1X<X|.;.! *.Q.Q.).~.V.n.n.v.m M v.a.e.e.i.k.x.R.E.*XyXuXuXtXtX/.;.,.;.",
"m x l 3.g.g.7.5.x x m m n m M.).).C.n.oXn.n.o.Z | VXNXNXxXxX5X^.| F O.Q.).).A.v.v.v.v.w.m 8.8.e.e.f.k.x.E.E.*X*XeXrXpXrX'.|.1.1.",
"l 3.l 4.k.F.i.4.x j N x m m ^ ~.~.C.M.!.!.;X0XNXNX9X0X9XNXmX3X^.(._ O.!.~.A.n.b.v.n.v.v.v.8.N e.i.g.x.x.T.*X*XyXeXeXpXaXtX;X}.}.",
"8.6.e.e.e.f.i.8.x N l l m m ^ oX!.C.C.].;X0X9XVXVX9X;X8X8X;X).(.^.oX~.~.~.C.n.n.m.m.m.a.n.8.M g.g.h.x.R.T.T.*X*XyXsXpXgXfXfXjX}.",
"w.g.f.6.8.i.u.4.x l k k M m v.^ n.C.~.'.'.'.0X9XSXVXqXdX:X;X;X0X9XC.n.!.;X'.C.n.m.P.C.m.a.a.D.k.k.x.x.T.@X@X#X#X*X&XrXpXgXDXhXjX",
"e.g.6.7.5.4.4.x l z x x M M M ^ v.C.].Z.'.'.0X9XqXSXSXdXdXdXAX8X`.N.B.oX'.`.Z.C.P.~.Z.n.P.D.k.H.F.k.W.T.T.#X#XE.L.yXpXuXgXDXgXtX",
"w.g.e.e.i.4.x l z M 4.M m n m m v.C.C.N.`.'.8X9X;X9XdXdXdXdX:X>XM.g Y.B.`.`.P.Z.].`.].b.m.k.k.j.H.H.J.R.E.@XE.$XK.yXwXpXhXhXfXtX",
"w.i.f.k.7.c l k k m 4.M M m m m v.!.m.P.P.`.'.O.1 8X8X;X~.;X-X%XY.H.K.P.P.`.!.!.A.'.C.a.5.5.F.0.K.H.K.E.E.@X$XwXrXaXuXpXgXpXfXkX",
"P 8.u.i.4.c l k k l M 4.K K I U ^ ^ r.I.I.m.!.Q.V.S.-X-X-XOX+XG.D.H.F.Y.B.B.C.n.~.!.n.w.q.a.g.H.H.N.E.E.$X$X$X$XwXwXpXgXgXfXhXpX",
"x P i.4.4.M l l z u z 8.4.r.t.q.y.^ m.~.m.m.v.b.) / P.I.P.Y.N.j.u.e.t.L N.d.b.!.'.C.b.8.b.8.3.D.k.k.R.R.@XE.@X#X#XeXaXaXgXfXhXfX",
"I 0.z.5.e.4.M I 9.x P 9.w.I 9.r.r.B.C.b.U v.m n L ^ y.z.j.j.z.d.0.M w.U G.D.d.Z.!.m.^ ^ n b n t.c.x.h.W.@Xk.R.=X*XeXyXuXuXtXjXI.",
"0.i.z.u.i.0.8.9.t.t.r.d.y.P P r.d.N.d.P U q.U n P K 7.l.Y.N.l.r.x u t.J.l.F.z.t.a.M s h s s t a.x.h.x.@XT.i.H.#X&XiXeXeXwXwXU.3.",
"r.p.l.f.z.d.U U d.j./ d./ U K r.u.d.j.0.I P c x k K 6.6.u.L l.P 1 P d.c.l.0.i.P P P v a k j y p.h.c.@X=Xc.c.c.@XsXsXsXiXrXiX+Xp.",
"0.f.z.c.l.N.t.t.r.S.OX/ U U P U r.d.d.i.I z c c l y t K 6.z.d.u y q.r.d.l.r.K K K K 8.y t t x 5.i.z.+Xc.z.c.l.&XsXiXsXsXaXwX&X+X",
"P 7.p.J.l.N.A.B.d.OXOXd.U P P K K I P P v r y r e - e z K K t P u u z L n.t.P x z r.5.l r z 5.5.z.h.@X@Xl.z.h.=X&X=X*X+X%X#X%Xp.",
"u K P d.7.U / ^ J ~ J L J 1 r J t y u k y e 1 = = = = e y e * 1 1 e t e u I K m r k k t 1 t u 5.z.7.7.7.4.6.p.h.z.z.p.7.i.g.7.j ",
"X @ + $ * + + # o % % % @ % = % & & = = % + & $ $ $ % % % % % & = < & = & 4 1 & - , < 4 & # = < 1 1 1 1 < 1 1 e e 1 e 1 - 1 - = ",
"+ + + o @ + + + + + @ # + + + $ ; # $ + $ % % $ + $ # + % $ % # + + + + # ; ; ; ; ; % % % # ; : ; % ; ; $ * ; ; % $ & & * $ $ $ ",
"$ + # o + + + # # ; ; # ; ; ; ; ; ; ; 2 2 2 2 2 : : : 2 2 2 2 4 2 ; + % : ; ; : 3 3 2 2 7 3 2 5 5 2 : ; ; 2 7 7 7 7 2 : ; < 4 7 ",
"2 2 2 # # # ; ; ; 3 3 3 3 3 3 3 3 0 8 5 3 3 2 2 5 6 6 5 5 6 d 6 6 6 Y Y Y Y ! ! ( ( | ( $.$.( ~ ! Y Y 6 d f J f f Y h 6 7 7 d i ",
"4 4 : % : ; : ; 3 3 5 2 5 2 2 3 5 6 0 d 6 3 5 5 7 6 6 6 Y ( ~ Y Y A ~ $._.;X,X_.)././._._._._._.` ` ) ( ~ ~ ~ Y Y ~ ~ Y J J J f ",
"2 : % % % % ; ; 2 2 4 4 2 2 : 2 2 5 5 6 4 5 2 5 2 4 7 7 6 f f f f 6 f Y ( ( ( ~ ( ( ) ( ` ` ) ( ( ~ J J Y J ~ ~ ~ ( ~ ~ Y ( ( ( ",
"% % % % % % % % % % & % % % % % : & : : & 2 & 4 2 2 4 4 4 4 4 4 < < 4 < 7 1 7 7 p p p d f f f d f 7 7 i 7 i f h J J J J J ~ ~ ~ ",
"& = = = = < 1 < & < 1 1 1 1 1 1 e 1 1 e < < 1 < = < 1 1 1 1 1 i i a a a u J u a a a a i a h u z I I I K u P I I I I I U U U P L ",
"K r.U I P / n.^ J / U L L P J u z z z v y r r 1 1 r y u k v r y u u g v I y.P g m m n s n m K r.l.p.l.l.r.u.j.c.c.+X+XY.+X+Xl.j.",
"7.Y.G.G.j.S.OXA.B.-XOXn./ U P 5.9.9.U M g u u y u u P I I r.P z b b y.d.j.t.I I w.r.I v b 8.0.i.c.J.@X+Xl.l.l.#X&X%X=X=X*X=X+X+X",
"j.J.G.Y.N.A.S.P.P.-XS.B.m.y.d.d.m.m.d.t.9.b P z z P K j.j.j.t.9.I t.N.G.G.d.t.q.w.a.I v x m 9.p.J.c.=X+Xc.l.l.#XiXiXiXyXyXiX&X=X",
"l.J.G.N.N.N.B.B.B.A.B.B.n.t.d.j.z.D.m.a.q.9.K P P r.7.d.F.G.j.r.I d.K.F.G.N.d.r.t.q.P v m m U l.c.+X=X&X+X+XY.#XiXsXsXiXyXiX=X+X"
};
